<?xml version="1.0" encoding="utf-8" standalone="no"?>
<!DOCTYPE svg PUBLIC "-//W3C//DTD SVG 1.1//EN"
  "http://www.w3.org/Graphics/SVG/1.1/DTD/svg11.dtd">
<!-- Created with matplotlib (http://matplotlib.org/) -->
<svg height="1440pt" version="1.1" viewBox="0 0 1440 1440" width="1440pt" xmlns="http://www.w3.org/2000/svg" xmlns:xlink="http://www.w3.org/1999/xlink">
 <defs>
  <style type="text/css">
*{stroke-linecap:butt;stroke-linejoin:round;}
  </style>
 </defs>
 <g id="figure_1">
  <g id="patch_1">
   <path d="M 0 1440 
L 1440 1440 
L 1440 0 
L 0 0 
z
" style="fill:#ffffff;"/>
  </g>
  <g id="axes_1">
   <g id="patch_2">
    <path d="M 180 1260 
L 1296 1260 
L 1296 172.8 
L 180 172.8 
z
" style="fill:#ffffff;"/>
   </g>
   <g id="patch_3">
    <path clip-path="url(#p84b715c57f)" d="M 182.632075 1260 
L 187.896226 1260 
L 187.896226 224.571429 
L 182.632075 224.571429 
z
" style="fill:#1f77b4;"/>
   </g>
   <g id="patch_4">
    <path clip-path="url(#p84b715c57f)" d="M 193.160377 1260 
L 198.424528 1260 
L 198.424528 1108.823621 
L 193.160377 1108.823621 
z
" style="fill:#1f77b4;"/>
   </g>
   <g id="patch_5">
    <path clip-path="url(#p84b715c57f)" d="M 203.688679 1260 
L 208.95283 1260 
L 208.95283 1165.656541 
L 203.688679 1165.656541 
z
" style="fill:#1f77b4;"/>
   </g>
   <g id="patch_6">
    <path clip-path="url(#p84b715c57f)" d="M 214.216981 1260 
L 219.481132 1260 
L 219.481132 1192.675471 
L 214.216981 1192.675471 
z
" style="fill:#1f77b4;"/>
   </g>
   <g id="patch_7">
    <path clip-path="url(#p84b715c57f)" d="M 224.745283 1260 
L 230.009434 1260 
L 230.009434 1206.326714 
L 224.745283 1206.326714 
z
" style="fill:#1f77b4;"/>
   </g>
   <g id="patch_8">
    <path clip-path="url(#p84b715c57f)" d="M 235.273585 1260 
L 240.537736 1260 
L 240.537736 1217.75001 
L 235.273585 1217.75001 
z
" style="fill:#1f77b4;"/>
   </g>
   <g id="patch_9">
    <path clip-path="url(#p84b715c57f)" d="M 245.801887 1260 
L 251.066038 1260 
L 251.066038 1227.958061 
L 245.801887 1227.958061 
z
" style="fill:#1f77b4;"/>
   </g>
   <g id="patch_10">
    <path clip-path="url(#p84b715c57f)" d="M 256.330189 1260 
L 261.59434 1260 
L 261.59434 1231.927859 
L 256.330189 1231.927859 
z
" style="fill:#1f77b4;"/>
   </g>
   <g id="patch_11">
    <path clip-path="url(#p84b715c57f)" d="M 266.858491 1260 
L 272.122642 1260 
L 272.122642 1235.6141 
L 266.858491 1235.6141 
z
" style="fill:#1f77b4;"/>
   </g>
   <g id="patch_12">
    <path clip-path="url(#p84b715c57f)" d="M 277.386792 1260 
L 282.650943 1260 
L 282.650943 1240.758633 
L 277.386792 1240.758633 
z
" style="fill:#1f77b4;"/>
   </g>
   <g id="patch_13">
    <path clip-path="url(#p84b715c57f)" d="M 287.915094 1260 
L 293.179245 1260 
L 293.179245 1242.905565 
L 287.915094 1242.905565 
z
" style="fill:#1f77b4;"/>
   </g>
   <g id="patch_14">
    <path clip-path="url(#p84b715c57f)" d="M 298.443396 1260 
L 303.707547 1260 
L 303.707547 1243.796744 
L 298.443396 1243.796744 
z
" style="fill:#1f77b4;"/>
   </g>
   <g id="patch_15">
    <path clip-path="url(#p84b715c57f)" d="M 308.971698 1260 
L 314.235849 1260 
L 314.235849 1246.510789 
L 308.971698 1246.510789 
z
" style="fill:#1f77b4;"/>
   </g>
   <g id="patch_16">
    <path clip-path="url(#p84b715c57f)" d="M 319.5 1260 
L 324.764151 1260 
L 324.764151 1245.61961 
L 319.5 1245.61961 
z
" style="fill:#1f77b4;"/>
   </g>
   <g id="patch_17">
    <path clip-path="url(#p84b715c57f)" d="M 330.028302 1260 
L 335.292453 1260 
L 335.292453 1248.779245 
L 330.028302 1248.779245 
z
" style="fill:#1f77b4;"/>
   </g>
   <g id="patch_18">
    <path clip-path="url(#p84b715c57f)" d="M 340.556604 1260 
L 345.820755 1260 
L 345.820755 1249.508392 
L 340.556604 1249.508392 
z
" style="fill:#1f77b4;"/>
   </g>
   <g id="patch_19">
    <path clip-path="url(#p84b715c57f)" d="M 351.084906 1260 
L 356.349057 1260 
L 356.349057 1251.817356 
L 351.084906 1251.817356 
z
" style="fill:#1f77b4;"/>
   </g>
   <g id="patch_20">
    <path clip-path="url(#p84b715c57f)" d="M 361.613208 1260 
L 366.877358 1260 
L 366.877358 1251.776848 
L 361.613208 1251.776848 
z
" style="fill:#1f77b4;"/>
   </g>
   <g id="patch_21">
    <path clip-path="url(#p84b715c57f)" d="M 372.141509 1260 
L 377.40566 1260 
L 377.40566 1251.614815 
L 372.141509 1251.614815 
z
" style="fill:#1f77b4;"/>
   </g>
   <g id="patch_22">
    <path clip-path="url(#p84b715c57f)" d="M 382.669811 1260 
L 387.933962 1260 
L 387.933962 1253.0326 
L 382.669811 1253.0326 
z
" style="fill:#1f77b4;"/>
   </g>
   <g id="patch_23">
    <path clip-path="url(#p84b715c57f)" d="M 393.198113 1260 
L 398.462264 1260 
L 398.462264 1253.113616 
L 393.198113 1253.113616 
z
" style="fill:#1f77b4;"/>
   </g>
   <g id="patch_24">
    <path clip-path="url(#p84b715c57f)" d="M 403.726415 1260 
L 408.990566 1260 
L 408.990566 1253.923779 
L 403.726415 1253.923779 
z
" style="fill:#1f77b4;"/>
   </g>
   <g id="patch_25">
    <path clip-path="url(#p84b715c57f)" d="M 414.254717 1260 
L 419.518868 1260 
L 419.518868 1253.113616 
L 414.254717 1253.113616 
z
" style="fill:#1f77b4;"/>
   </g>
   <g id="patch_26">
    <path clip-path="url(#p84b715c57f)" d="M 424.783019 1260 
L 430.04717 1260 
L 430.04717 1253.964287 
L 424.783019 1253.964287 
z
" style="fill:#1f77b4;"/>
   </g>
   <g id="patch_27">
    <path clip-path="url(#p84b715c57f)" d="M 435.311321 1260 
L 440.575472 1260 
L 440.575472 1254.733942 
L 435.311321 1254.733942 
z
" style="fill:#1f77b4;"/>
   </g>
   <g id="patch_28">
    <path clip-path="url(#p84b715c57f)" d="M 445.839623 1260 
L 451.103774 1260 
L 451.103774 1254.936482 
L 445.839623 1254.936482 
z
" style="fill:#1f77b4;"/>
   </g>
   <g id="patch_29">
    <path clip-path="url(#p84b715c57f)" d="M 456.367925 1260 
L 461.632075 1260 
L 461.632075 1255.301056 
L 456.367925 1255.301056 
z
" style="fill:#1f77b4;"/>
   </g>
   <g id="patch_30">
    <path clip-path="url(#p84b715c57f)" d="M 466.896226 1260 
L 472.160377 1260 
L 472.160377 1255.787153 
L 466.896226 1255.787153 
z
" style="fill:#1f77b4;"/>
   </g>
   <g id="patch_31">
    <path clip-path="url(#p84b715c57f)" d="M 477.424528 1260 
L 482.688679 1260 
L 482.688679 1255.989694 
L 477.424528 1255.989694 
z
" style="fill:#1f77b4;"/>
   </g>
   <g id="patch_32">
    <path clip-path="url(#p84b715c57f)" d="M 487.95283 1260 
L 493.216981 1260 
L 493.216981 1256.556808 
L 487.95283 1256.556808 
z
" style="fill:#1f77b4;"/>
   </g>
   <g id="patch_33">
    <path clip-path="url(#p84b715c57f)" d="M 498.481132 1260 
L 503.745283 1260 
L 503.745283 1257.002398 
L 498.481132 1257.002398 
z
" style="fill:#1f77b4;"/>
   </g>
   <g id="patch_34">
    <path clip-path="url(#p84b715c57f)" d="M 509.009434 1260 
L 514.273585 1260 
L 514.273585 1255.787153 
L 509.009434 1255.787153 
z
" style="fill:#1f77b4;"/>
   </g>
   <g id="patch_35">
    <path clip-path="url(#p84b715c57f)" d="M 519.537736 1260 
L 524.801887 1260 
L 524.801887 1256.313759 
L 519.537736 1256.313759 
z
" style="fill:#1f77b4;"/>
   </g>
   <g id="patch_36">
    <path clip-path="url(#p84b715c57f)" d="M 530.066038 1260 
L 535.330189 1260 
L 535.330189 1256.435284 
L 530.066038 1256.435284 
z
" style="fill:#1f77b4;"/>
   </g>
   <g id="patch_37">
    <path clip-path="url(#p84b715c57f)" d="M 540.59434 1260 
L 545.858491 1260 
L 545.858491 1257.16443 
L 540.59434 1257.16443 
z
" style="fill:#1f77b4;"/>
   </g>
   <g id="patch_38">
    <path clip-path="url(#p84b715c57f)" d="M 551.122642 1260 
L 556.386792 1260 
L 556.386792 1257.042906 
L 551.122642 1257.042906 
z
" style="fill:#1f77b4;"/>
   </g>
   <g id="patch_39">
    <path clip-path="url(#p84b715c57f)" d="M 561.650943 1260 
L 566.915094 1260 
L 566.915094 1256.678333 
L 561.650943 1256.678333 
z
" style="fill:#1f77b4;"/>
   </g>
   <g id="patch_40">
    <path clip-path="url(#p84b715c57f)" d="M 572.179245 1260 
L 577.443396 1260 
L 577.443396 1257.447987 
L 572.179245 1257.447987 
z
" style="fill:#1f77b4;"/>
   </g>
   <g id="patch_41">
    <path clip-path="url(#p84b715c57f)" d="M 582.707547 1260 
L 587.971698 1260 
L 587.971698 1257.772052 
L 582.707547 1257.772052 
z
" style="fill:#1f77b4;"/>
   </g>
   <g id="patch_42">
    <path clip-path="url(#p84b715c57f)" d="M 593.235849 1260 
L 598.5 1260 
L 598.5 1257.204938 
L 593.235849 1257.204938 
z
" style="fill:#1f77b4;"/>
   </g>
   <g id="patch_43">
    <path clip-path="url(#p84b715c57f)" d="M 603.764151 1260 
L 609.028302 1260 
L 609.028302 1257.407479 
L 603.764151 1257.407479 
z
" style="fill:#1f77b4;"/>
   </g>
   <g id="patch_44">
    <path clip-path="url(#p84b715c57f)" d="M 614.292453 1260 
L 619.556604 1260 
L 619.556604 1257.407479 
L 614.292453 1257.407479 
z
" style="fill:#1f77b4;"/>
   </g>
   <g id="patch_45">
    <path clip-path="url(#p84b715c57f)" d="M 624.820755 1260 
L 630.084906 1260 
L 630.084906 1258.136626 
L 624.820755 1258.136626 
z
" style="fill:#1f77b4;"/>
   </g>
   <g id="patch_46">
    <path clip-path="url(#p84b715c57f)" d="M 635.349057 1260 
L 640.613208 1260 
L 640.613208 1257.407479 
L 635.349057 1257.407479 
z
" style="fill:#1f77b4;"/>
   </g>
   <g id="patch_47">
    <path clip-path="url(#p84b715c57f)" d="M 645.877358 1260 
L 651.141509 1260 
L 651.141509 1257.934085 
L 645.877358 1257.934085 
z
" style="fill:#1f77b4;"/>
   </g>
   <g id="patch_48">
    <path clip-path="url(#p84b715c57f)" d="M 656.40566 1260 
L 661.669811 1260 
L 661.669811 1257.81256 
L 656.40566 1257.81256 
z
" style="fill:#1f77b4;"/>
   </g>
   <g id="patch_49">
    <path clip-path="url(#p84b715c57f)" d="M 666.933962 1260 
L 672.198113 1260 
L 672.198113 1257.853069 
L 666.933962 1257.853069 
z
" style="fill:#1f77b4;"/>
   </g>
   <g id="patch_50">
    <path clip-path="url(#p84b715c57f)" d="M 677.462264 1260 
L 682.726415 1260 
L 682.726415 1257.569512 
L 677.462264 1257.569512 
z
" style="fill:#1f77b4;"/>
   </g>
   <g id="patch_51">
    <path clip-path="url(#p84b715c57f)" d="M 687.990566 1260 
L 693.254717 1260 
L 693.254717 1258.25815 
L 687.990566 1258.25815 
z
" style="fill:#1f77b4;"/>
   </g>
   <g id="patch_52">
    <path clip-path="url(#p84b715c57f)" d="M 698.518868 1260 
L 703.783019 1260 
L 703.783019 1258.055609 
L 698.518868 1258.055609 
z
" style="fill:#1f77b4;"/>
   </g>
   <g id="patch_53">
    <path clip-path="url(#p84b715c57f)" d="M 709.04717 1260 
L 714.311321 1260 
L 714.311321 1258.501199 
L 709.04717 1258.501199 
z
" style="fill:#1f77b4;"/>
   </g>
   <g id="patch_54">
    <path clip-path="url(#p84b715c57f)" d="M 719.575472 1260 
L 724.839623 1260 
L 724.839623 1258.015101 
L 719.575472 1258.015101 
z
" style="fill:#1f77b4;"/>
   </g>
   <g id="patch_55">
    <path clip-path="url(#p84b715c57f)" d="M 730.103774 1260 
L 735.367925 1260 
L 735.367925 1258.298658 
L 730.103774 1258.298658 
z
" style="fill:#1f77b4;"/>
   </g>
   <g id="patch_56">
    <path clip-path="url(#p84b715c57f)" d="M 740.632075 1260 
L 745.896226 1260 
L 745.896226 1257.285955 
L 740.632075 1257.285955 
z
" style="fill:#1f77b4;"/>
   </g>
   <g id="patch_57">
    <path clip-path="url(#p84b715c57f)" d="M 751.160377 1260 
L 756.424528 1260 
L 756.424528 1258.582215 
L 751.160377 1258.582215 
z
" style="fill:#1f77b4;"/>
   </g>
   <g id="patch_58">
    <path clip-path="url(#p84b715c57f)" d="M 761.688679 1260 
L 766.95283 1260 
L 766.95283 1258.298658 
L 761.688679 1258.298658 
z
" style="fill:#1f77b4;"/>
   </g>
   <g id="patch_59">
    <path clip-path="url(#p84b715c57f)" d="M 772.216981 1260 
L 777.481132 1260 
L 777.481132 1257.731544 
L 772.216981 1257.731544 
z
" style="fill:#1f77b4;"/>
   </g>
   <g id="patch_60">
    <path clip-path="url(#p84b715c57f)" d="M 782.745283 1260 
L 788.009434 1260 
L 788.009434 1258.70374 
L 782.745283 1258.70374 
z
" style="fill:#1f77b4;"/>
   </g>
   <g id="patch_61">
    <path clip-path="url(#p84b715c57f)" d="M 793.273585 1260 
L 798.537736 1260 
L 798.537736 1257.407479 
L 793.273585 1257.407479 
z
" style="fill:#1f77b4;"/>
   </g>
   <g id="patch_62">
    <path clip-path="url(#p84b715c57f)" d="M 803.801887 1260 
L 809.066038 1260 
L 809.066038 1258.865772 
L 803.801887 1258.865772 
z
" style="fill:#1f77b4;"/>
   </g>
   <g id="patch_63">
    <path clip-path="url(#p84b715c57f)" d="M 814.330189 1260 
L 819.59434 1260 
L 819.59434 1257.772052 
L 814.330189 1257.772052 
z
" style="fill:#1f77b4;"/>
   </g>
   <g id="patch_64">
    <path clip-path="url(#p84b715c57f)" d="M 824.858491 1260 
L 830.122642 1260 
L 830.122642 1258.339166 
L 824.858491 1258.339166 
z
" style="fill:#1f77b4;"/>
   </g>
   <g id="patch_65">
    <path clip-path="url(#p84b715c57f)" d="M 835.386792 1260 
L 840.650943 1260 
L 840.650943 1258.339166 
L 835.386792 1258.339166 
z
" style="fill:#1f77b4;"/>
   </g>
   <g id="patch_66">
    <path clip-path="url(#p84b715c57f)" d="M 845.915094 1260 
L 851.179245 1260 
L 851.179245 1258.015101 
L 845.915094 1258.015101 
z
" style="fill:#1f77b4;"/>
   </g>
   <g id="patch_67">
    <path clip-path="url(#p84b715c57f)" d="M 856.443396 1260 
L 861.707547 1260 
L 861.707547 1258.420183 
L 856.443396 1258.420183 
z
" style="fill:#1f77b4;"/>
   </g>
   <g id="patch_68">
    <path clip-path="url(#p84b715c57f)" d="M 866.971698 1260 
L 872.235849 1260 
L 872.235849 1258.136626 
L 866.971698 1258.136626 
z
" style="fill:#1f77b4;"/>
   </g>
   <g id="patch_69">
    <path clip-path="url(#p84b715c57f)" d="M 877.5 1260 
L 882.764151 1260 
L 882.764151 1257.81256 
L 877.5 1257.81256 
z
" style="fill:#1f77b4;"/>
   </g>
   <g id="patch_70">
    <path clip-path="url(#p84b715c57f)" d="M 888.028302 1260 
L 893.292453 1260 
L 893.292453 1258.420183 
L 888.028302 1258.420183 
z
" style="fill:#1f77b4;"/>
   </g>
   <g id="patch_71">
    <path clip-path="url(#p84b715c57f)" d="M 898.556604 1260 
L 903.820755 1260 
L 903.820755 1257.569512 
L 898.556604 1257.569512 
z
" style="fill:#1f77b4;"/>
   </g>
   <g id="patch_72">
    <path clip-path="url(#p84b715c57f)" d="M 909.084906 1260 
L 914.349057 1260 
L 914.349057 1258.177134 
L 909.084906 1258.177134 
z
" style="fill:#1f77b4;"/>
   </g>
   <g id="patch_73">
    <path clip-path="url(#p84b715c57f)" d="M 919.613208 1260 
L 924.877358 1260 
L 924.877358 1258.663231 
L 919.613208 1258.663231 
z
" style="fill:#1f77b4;"/>
   </g>
   <g id="patch_74">
    <path clip-path="url(#p84b715c57f)" d="M 930.141509 1260 
L 935.40566 1260 
L 935.40566 1257.893577 
L 930.141509 1257.893577 
z
" style="fill:#1f77b4;"/>
   </g>
   <g id="patch_75">
    <path clip-path="url(#p84b715c57f)" d="M 940.669811 1260 
L 945.933962 1260 
L 945.933962 1258.217642 
L 940.669811 1258.217642 
z
" style="fill:#1f77b4;"/>
   </g>
   <g id="patch_76">
    <path clip-path="url(#p84b715c57f)" d="M 951.198113 1260 
L 956.462264 1260 
L 956.462264 1257.853069 
L 951.198113 1257.853069 
z
" style="fill:#1f77b4;"/>
   </g>
   <g id="patch_77">
    <path clip-path="url(#p84b715c57f)" d="M 961.726415 1260 
L 966.990566 1260 
L 966.990566 1258.501199 
L 961.726415 1258.501199 
z
" style="fill:#1f77b4;"/>
   </g>
   <g id="patch_78">
    <path clip-path="url(#p84b715c57f)" d="M 972.254717 1260 
L 977.518868 1260 
L 977.518868 1257.529003 
L 972.254717 1257.529003 
z
" style="fill:#1f77b4;"/>
   </g>
   <g id="patch_79">
    <path clip-path="url(#p84b715c57f)" d="M 982.783019 1260 
L 988.04717 1260 
L 988.04717 1258.460691 
L 982.783019 1258.460691 
z
" style="fill:#1f77b4;"/>
   </g>
   <g id="patch_80">
    <path clip-path="url(#p84b715c57f)" d="M 993.311321 1260 
L 998.575472 1260 
L 998.575472 1258.379674 
L 993.311321 1258.379674 
z
" style="fill:#1f77b4;"/>
   </g>
   <g id="patch_81">
    <path clip-path="url(#p84b715c57f)" d="M 1003.839623 1260 
L 1009.103774 1260 
L 1009.103774 1257.934085 
L 1003.839623 1257.934085 
z
" style="fill:#1f77b4;"/>
   </g>
   <g id="patch_82">
    <path clip-path="url(#p84b715c57f)" d="M 1014.367925 1260 
L 1019.632075 1260 
L 1019.632075 1258.298658 
L 1014.367925 1258.298658 
z
" style="fill:#1f77b4;"/>
   </g>
   <g id="patch_83">
    <path clip-path="url(#p84b715c57f)" d="M 1024.896226 1260 
L 1030.160377 1260 
L 1030.160377 1258.015101 
L 1024.896226 1258.015101 
z
" style="fill:#1f77b4;"/>
   </g>
   <g id="patch_84">
    <path clip-path="url(#p84b715c57f)" d="M 1035.424528 1260 
L 1040.688679 1260 
L 1040.688679 1258.177134 
L 1035.424528 1258.177134 
z
" style="fill:#1f77b4;"/>
   </g>
   <g id="patch_85">
    <path clip-path="url(#p84b715c57f)" d="M 1045.95283 1260 
L 1051.216981 1260 
L 1051.216981 1258.217642 
L 1045.95283 1258.217642 
z
" style="fill:#1f77b4;"/>
   </g>
   <g id="patch_86">
    <path clip-path="url(#p84b715c57f)" d="M 1056.481132 1260 
L 1061.745283 1260 
L 1061.745283 1258.177134 
L 1056.481132 1258.177134 
z
" style="fill:#1f77b4;"/>
   </g>
   <g id="patch_87">
    <path clip-path="url(#p84b715c57f)" d="M 1067.009434 1260 
L 1072.273585 1260 
L 1072.273585 1257.893577 
L 1067.009434 1257.893577 
z
" style="fill:#1f77b4;"/>
   </g>
   <g id="patch_88">
    <path clip-path="url(#p84b715c57f)" d="M 1077.537736 1260 
L 1082.801887 1260 
L 1082.801887 1258.217642 
L 1077.537736 1258.217642 
z
" style="fill:#1f77b4;"/>
   </g>
   <g id="patch_89">
    <path clip-path="url(#p84b715c57f)" d="M 1088.066038 1260 
L 1093.330189 1260 
L 1093.330189 1257.934085 
L 1088.066038 1257.934085 
z
" style="fill:#1f77b4;"/>
   </g>
   <g id="patch_90">
    <path clip-path="url(#p84b715c57f)" d="M 1098.59434 1260 
L 1103.858491 1260 
L 1103.858491 1258.379674 
L 1098.59434 1258.379674 
z
" style="fill:#1f77b4;"/>
   </g>
   <g id="patch_91">
    <path clip-path="url(#p84b715c57f)" d="M 1109.122642 1260 
L 1114.386792 1260 
L 1114.386792 1258.096117 
L 1109.122642 1258.096117 
z
" style="fill:#1f77b4;"/>
   </g>
   <g id="patch_92">
    <path clip-path="url(#p84b715c57f)" d="M 1119.650943 1260 
L 1124.915094 1260 
L 1124.915094 1258.096117 
L 1119.650943 1258.096117 
z
" style="fill:#1f77b4;"/>
   </g>
   <g id="patch_93">
    <path clip-path="url(#p84b715c57f)" d="M 1130.179245 1260 
L 1135.443396 1260 
L 1135.443396 1258.217642 
L 1130.179245 1258.217642 
z
" style="fill:#1f77b4;"/>
   </g>
   <g id="patch_94">
    <path clip-path="url(#p84b715c57f)" d="M 1140.707547 1260 
L 1145.971698 1260 
L 1145.971698 1258.136626 
L 1140.707547 1258.136626 
z
" style="fill:#1f77b4;"/>
   </g>
   <g id="patch_95">
    <path clip-path="url(#p84b715c57f)" d="M 1151.235849 1260 
L 1156.5 1260 
L 1156.5 1258.136626 
L 1151.235849 1258.136626 
z
" style="fill:#1f77b4;"/>
   </g>
   <g id="patch_96">
    <path clip-path="url(#p84b715c57f)" d="M 1161.764151 1260 
L 1167.028302 1260 
L 1167.028302 1258.055609 
L 1161.764151 1258.055609 
z
" style="fill:#1f77b4;"/>
   </g>
   <g id="patch_97">
    <path clip-path="url(#p84b715c57f)" d="M 1172.292453 1260 
L 1177.556604 1260 
L 1177.556604 1258.217642 
L 1172.292453 1258.217642 
z
" style="fill:#1f77b4;"/>
   </g>
   <g id="patch_98">
    <path clip-path="url(#p84b715c57f)" d="M 1182.820755 1260 
L 1188.084906 1260 
L 1188.084906 1258.096117 
L 1182.820755 1258.096117 
z
" style="fill:#1f77b4;"/>
   </g>
   <g id="patch_99">
    <path clip-path="url(#p84b715c57f)" d="M 1193.349057 1260 
L 1198.613208 1260 
L 1198.613208 1258.136626 
L 1193.349057 1258.136626 
z
" style="fill:#1f77b4;"/>
   </g>
   <g id="patch_100">
    <path clip-path="url(#p84b715c57f)" d="M 1203.877358 1260 
L 1209.141509 1260 
L 1209.141509 1258.136626 
L 1203.877358 1258.136626 
z
" style="fill:#1f77b4;"/>
   </g>
   <g id="patch_101">
    <path clip-path="url(#p84b715c57f)" d="M 1214.40566 1260 
L 1219.669811 1260 
L 1219.669811 1258.055609 
L 1214.40566 1258.055609 
z
" style="fill:#1f77b4;"/>
   </g>
   <g id="patch_102">
    <path clip-path="url(#p84b715c57f)" d="M 1224.933962 1260 
L 1230.198113 1260 
L 1230.198113 1258.217642 
L 1224.933962 1258.217642 
z
" style="fill:#1f77b4;"/>
   </g>
   <g id="patch_103">
    <path clip-path="url(#p84b715c57f)" d="M 1235.462264 1260 
L 1240.726415 1260 
L 1240.726415 1258.136626 
L 1235.462264 1258.136626 
z
" style="fill:#1f77b4;"/>
   </g>
   <g id="patch_104">
    <path clip-path="url(#p84b715c57f)" d="M 1245.990566 1260 
L 1251.254717 1260 
L 1251.254717 1258.055609 
L 1245.990566 1258.055609 
z
" style="fill:#1f77b4;"/>
   </g>
   <g id="patch_105">
    <path clip-path="url(#p84b715c57f)" d="M 1256.518868 1260 
L 1261.783019 1260 
L 1261.783019 1258.177134 
L 1256.518868 1258.177134 
z
" style="fill:#1f77b4;"/>
   </g>
   <g id="patch_106">
    <path clip-path="url(#p84b715c57f)" d="M 1267.04717 1260 
L 1272.311321 1260 
L 1272.311321 1258.136626 
L 1267.04717 1258.136626 
z
" style="fill:#1f77b4;"/>
   </g>
   <g id="patch_107">
    <path clip-path="url(#p84b715c57f)" d="M 1277.575472 1260 
L 1282.839623 1260 
L 1282.839623 1258.136626 
L 1277.575472 1258.136626 
z
" style="fill:#1f77b4;"/>
   </g>
   <g id="patch_108">
    <path clip-path="url(#p84b715c57f)" d="M 1288.103774 1260 
L 1293.367925 1260 
L 1293.367925 1258.096117 
L 1288.103774 1258.096117 
z
" style="fill:#1f77b4;"/>
   </g>
   <g id="matplotlib.axis_1">
    <g id="xtick_1">
     <g id="line2d_1">
      <defs>
       <path d="M 0 0 
L 0 3.5 
" id="m37c190cf63" style="stroke:#000000;stroke-width:0.8;"/>
      </defs>
      <g>
       <use style="stroke:#000000;stroke-width:0.8;" x="185.264151" xlink:href="#m37c190cf63" y="1260"/>
      </g>
     </g>
     <g id="text_1">
      <!-- (0.999, 2.0] -->
      <defs>
       <path d="M 31 75.875 
Q 24.46875 64.65625 21.28125 53.65625 
Q 18.109375 42.671875 18.109375 31.390625 
Q 18.109375 20.125 21.3125 9.0625 
Q 24.515625 -2 31 -13.1875 
L 23.1875 -13.1875 
Q 15.875 -1.703125 12.234375 9.375 
Q 8.59375 20.453125 8.59375 31.390625 
Q 8.59375 42.28125 12.203125 53.3125 
Q 15.828125 64.359375 23.1875 75.875 
z
" id="DejaVuSans-28"/>
       <path d="M 31.78125 66.40625 
Q 24.171875 66.40625 20.328125 58.90625 
Q 16.5 51.421875 16.5 36.375 
Q 16.5 21.390625 20.328125 13.890625 
Q 24.171875 6.390625 31.78125 6.390625 
Q 39.453125 6.390625 43.28125 13.890625 
Q 47.125 21.390625 47.125 36.375 
Q 47.125 51.421875 43.28125 58.90625 
Q 39.453125 66.40625 31.78125 66.40625 
z
M 31.78125 74.21875 
Q 44.046875 74.21875 50.515625 64.515625 
Q 56.984375 54.828125 56.984375 36.375 
Q 56.984375 17.96875 50.515625 8.265625 
Q 44.046875 -1.421875 31.78125 -1.421875 
Q 19.53125 -1.421875 13.0625 8.265625 
Q 6.59375 17.96875 6.59375 36.375 
Q 6.59375 54.828125 13.0625 64.515625 
Q 19.53125 74.21875 31.78125 74.21875 
z
" id="DejaVuSans-30"/>
       <path d="M 10.6875 12.40625 
L 21 12.40625 
L 21 0 
L 10.6875 0 
z
" id="DejaVuSans-2e"/>
       <path d="M 10.984375 1.515625 
L 10.984375 10.5 
Q 14.703125 8.734375 18.5 7.8125 
Q 22.3125 6.890625 25.984375 6.890625 
Q 35.75 6.890625 40.890625 13.453125 
Q 46.046875 20.015625 46.78125 33.40625 
Q 43.953125 29.203125 39.59375 26.953125 
Q 35.25 24.703125 29.984375 24.703125 
Q 19.046875 24.703125 12.671875 31.3125 
Q 6.296875 37.9375 6.296875 49.421875 
Q 6.296875 60.640625 12.9375 67.421875 
Q 19.578125 74.21875 30.609375 74.21875 
Q 43.265625 74.21875 49.921875 64.515625 
Q 56.59375 54.828125 56.59375 36.375 
Q 56.59375 19.140625 48.40625 8.859375 
Q 40.234375 -1.421875 26.421875 -1.421875 
Q 22.703125 -1.421875 18.890625 -0.6875 
Q 15.09375 0.046875 10.984375 1.515625 
z
M 30.609375 32.421875 
Q 37.25 32.421875 41.125 36.953125 
Q 45.015625 41.5 45.015625 49.421875 
Q 45.015625 57.28125 41.125 61.84375 
Q 37.25 66.40625 30.609375 66.40625 
Q 23.96875 66.40625 20.09375 61.84375 
Q 16.21875 57.28125 16.21875 49.421875 
Q 16.21875 41.5 20.09375 36.953125 
Q 23.96875 32.421875 30.609375 32.421875 
z
" id="DejaVuSans-39"/>
       <path d="M 11.71875 12.40625 
L 22.015625 12.40625 
L 22.015625 4 
L 14.015625 -11.625 
L 7.71875 -11.625 
L 11.71875 4 
z
" id="DejaVuSans-2c"/>
       <path id="DejaVuSans-20"/>
       <path d="M 19.1875 8.296875 
L 53.609375 8.296875 
L 53.609375 0 
L 7.328125 0 
L 7.328125 8.296875 
Q 12.9375 14.109375 22.625 23.890625 
Q 32.328125 33.6875 34.8125 36.53125 
Q 39.546875 41.84375 41.421875 45.53125 
Q 43.3125 49.21875 43.3125 52.78125 
Q 43.3125 58.59375 39.234375 62.25 
Q 35.15625 65.921875 28.609375 65.921875 
Q 23.96875 65.921875 18.8125 64.3125 
Q 13.671875 62.703125 7.8125 59.421875 
L 7.8125 69.390625 
Q 13.765625 71.78125 18.9375 73 
Q 24.125 74.21875 28.421875 74.21875 
Q 39.75 74.21875 46.484375 68.546875 
Q 53.21875 62.890625 53.21875 53.421875 
Q 53.21875 48.921875 51.53125 44.890625 
Q 49.859375 40.875 45.40625 35.40625 
Q 44.1875 33.984375 37.640625 27.21875 
Q 31.109375 20.453125 19.1875 8.296875 
z
" id="DejaVuSans-32"/>
       <path d="M 30.421875 75.984375 
L 30.421875 -13.1875 
L 9.71875 -13.1875 
L 9.71875 -6.203125 
L 21.390625 -6.203125 
L 21.390625 69 
L 9.71875 69 
L 9.71875 75.984375 
z
" id="DejaVuSans-5d"/>
      </defs>
      <g transform="translate(191.886651 1407.8575)rotate(-90)scale(0.24 -0.24)">
       <use xlink:href="#DejaVuSans-28"/>
       <use x="39.013672" xlink:href="#DejaVuSans-30"/>
       <use x="102.636719" xlink:href="#DejaVuSans-2e"/>
       <use x="134.423828" xlink:href="#DejaVuSans-39"/>
       <use x="198.046875" xlink:href="#DejaVuSans-39"/>
       <use x="261.669922" xlink:href="#DejaVuSans-39"/>
       <use x="325.292969" xlink:href="#DejaVuSans-2c"/>
       <use x="357.080078" xlink:href="#DejaVuSans-20"/>
       <use x="388.867188" xlink:href="#DejaVuSans-32"/>
       <use x="452.490234" xlink:href="#DejaVuSans-2e"/>
       <use x="484.277344" xlink:href="#DejaVuSans-30"/>
       <use x="547.900391" xlink:href="#DejaVuSans-5d"/>
      </g>
     </g>
    </g>
    <g id="xtick_2">
     <g id="line2d_2">
      <g>
       <use style="stroke:#000000;stroke-width:0.8;" x="216.849057" xlink:href="#m37c190cf63" y="1260"/>
      </g>
     </g>
     <g id="text_2">
      <!-- (4.0, 5.0] -->
      <defs>
       <path d="M 37.796875 64.3125 
L 12.890625 25.390625 
L 37.796875 25.390625 
z
M 35.203125 72.90625 
L 47.609375 72.90625 
L 47.609375 25.390625 
L 58.015625 25.390625 
L 58.015625 17.1875 
L 47.609375 17.1875 
L 47.609375 0 
L 37.796875 0 
L 37.796875 17.1875 
L 4.890625 17.1875 
L 4.890625 26.703125 
z
" id="DejaVuSans-34"/>
       <path d="M 10.796875 72.90625 
L 49.515625 72.90625 
L 49.515625 64.59375 
L 19.828125 64.59375 
L 19.828125 46.734375 
Q 21.96875 47.46875 24.109375 47.828125 
Q 26.265625 48.1875 28.421875 48.1875 
Q 40.625 48.1875 47.75 41.5 
Q 54.890625 34.8125 54.890625 23.390625 
Q 54.890625 11.625 47.5625 5.09375 
Q 40.234375 -1.421875 26.90625 -1.421875 
Q 22.3125 -1.421875 17.546875 -0.640625 
Q 12.796875 0.140625 7.71875 1.703125 
L 7.71875 11.625 
Q 12.109375 9.234375 16.796875 8.0625 
Q 21.484375 6.890625 26.703125 6.890625 
Q 35.15625 6.890625 40.078125 11.328125 
Q 45.015625 15.765625 45.015625 23.390625 
Q 45.015625 31 40.078125 35.4375 
Q 35.15625 39.890625 26.703125 39.890625 
Q 22.75 39.890625 18.8125 39.015625 
Q 14.890625 38.140625 10.796875 36.28125 
z
" id="DejaVuSans-35"/>
      </defs>
      <g transform="translate(223.471557 1377.3175)rotate(-90)scale(0.24 -0.24)">
       <use xlink:href="#DejaVuSans-28"/>
       <use x="39.013672" xlink:href="#DejaVuSans-34"/>
       <use x="102.636719" xlink:href="#DejaVuSans-2e"/>
       <use x="134.423828" xlink:href="#DejaVuSans-30"/>
       <use x="198.046875" xlink:href="#DejaVuSans-2c"/>
       <use x="229.833984" xlink:href="#DejaVuSans-20"/>
       <use x="261.621094" xlink:href="#DejaVuSans-35"/>
       <use x="325.244141" xlink:href="#DejaVuSans-2e"/>
       <use x="357.03125" xlink:href="#DejaVuSans-30"/>
       <use x="420.654297" xlink:href="#DejaVuSans-5d"/>
      </g>
     </g>
    </g>
    <g id="xtick_3">
     <g id="line2d_3">
      <g>
       <use style="stroke:#000000;stroke-width:0.8;" x="248.433962" xlink:href="#m37c190cf63" y="1260"/>
      </g>
     </g>
     <g id="text_3">
      <!-- (7.0, 8.0] -->
      <defs>
       <path d="M 8.203125 72.90625 
L 55.078125 72.90625 
L 55.078125 68.703125 
L 28.609375 0 
L 18.3125 0 
L 43.21875 64.59375 
L 8.203125 64.59375 
z
" id="DejaVuSans-37"/>
       <path d="M 31.78125 34.625 
Q 24.75 34.625 20.71875 30.859375 
Q 16.703125 27.09375 16.703125 20.515625 
Q 16.703125 13.921875 20.71875 10.15625 
Q 24.75 6.390625 31.78125 6.390625 
Q 38.8125 6.390625 42.859375 10.171875 
Q 46.921875 13.96875 46.921875 20.515625 
Q 46.921875 27.09375 42.890625 30.859375 
Q 38.875 34.625 31.78125 34.625 
z
M 21.921875 38.8125 
Q 15.578125 40.375 12.03125 44.71875 
Q 8.5 49.078125 8.5 55.328125 
Q 8.5 64.0625 14.71875 69.140625 
Q 20.953125 74.21875 31.78125 74.21875 
Q 42.671875 74.21875 48.875 69.140625 
Q 55.078125 64.0625 55.078125 55.328125 
Q 55.078125 49.078125 51.53125 44.71875 
Q 48 40.375 41.703125 38.8125 
Q 48.828125 37.15625 52.796875 32.3125 
Q 56.78125 27.484375 56.78125 20.515625 
Q 56.78125 9.90625 50.3125 4.234375 
Q 43.84375 -1.421875 31.78125 -1.421875 
Q 19.734375 -1.421875 13.25 4.234375 
Q 6.78125 9.90625 6.78125 20.515625 
Q 6.78125 27.484375 10.78125 32.3125 
Q 14.796875 37.15625 21.921875 38.8125 
z
M 18.3125 54.390625 
Q 18.3125 48.734375 21.84375 45.5625 
Q 25.390625 42.390625 31.78125 42.390625 
Q 38.140625 42.390625 41.71875 45.5625 
Q 45.3125 48.734375 45.3125 54.390625 
Q 45.3125 60.0625 41.71875 63.234375 
Q 38.140625 66.40625 31.78125 66.40625 
Q 25.390625 66.40625 21.84375 63.234375 
Q 18.3125 60.0625 18.3125 54.390625 
z
" id="DejaVuSans-38"/>
      </defs>
      <g transform="translate(255.056462 1377.3175)rotate(-90)scale(0.24 -0.24)">
       <use xlink:href="#DejaVuSans-28"/>
       <use x="39.013672" xlink:href="#DejaVuSans-37"/>
       <use x="102.636719" xlink:href="#DejaVuSans-2e"/>
       <use x="134.423828" xlink:href="#DejaVuSans-30"/>
       <use x="198.046875" xlink:href="#DejaVuSans-2c"/>
       <use x="229.833984" xlink:href="#DejaVuSans-20"/>
       <use x="261.621094" xlink:href="#DejaVuSans-38"/>
       <use x="325.244141" xlink:href="#DejaVuSans-2e"/>
       <use x="357.03125" xlink:href="#DejaVuSans-30"/>
       <use x="420.654297" xlink:href="#DejaVuSans-5d"/>
      </g>
     </g>
    </g>
    <g id="xtick_4">
     <g id="line2d_4">
      <g>
       <use style="stroke:#000000;stroke-width:0.8;" x="280.018868" xlink:href="#m37c190cf63" y="1260"/>
      </g>
     </g>
     <g id="text_4">
      <!-- (10.0, 11.0] -->
      <defs>
       <path d="M 12.40625 8.296875 
L 28.515625 8.296875 
L 28.515625 63.921875 
L 10.984375 60.40625 
L 10.984375 69.390625 
L 28.421875 72.90625 
L 38.28125 72.90625 
L 38.28125 8.296875 
L 54.390625 8.296875 
L 54.390625 0 
L 12.40625 0 
z
" id="DejaVuSans-31"/>
      </defs>
      <g transform="translate(286.641368 1407.8575)rotate(-90)scale(0.24 -0.24)">
       <use xlink:href="#DejaVuSans-28"/>
       <use x="39.013672" xlink:href="#DejaVuSans-31"/>
       <use x="102.636719" xlink:href="#DejaVuSans-30"/>
       <use x="166.259766" xlink:href="#DejaVuSans-2e"/>
       <use x="198.046875" xlink:href="#DejaVuSans-30"/>
       <use x="261.669922" xlink:href="#DejaVuSans-2c"/>
       <use x="293.457031" xlink:href="#DejaVuSans-20"/>
       <use x="325.244141" xlink:href="#DejaVuSans-31"/>
       <use x="388.867188" xlink:href="#DejaVuSans-31"/>
       <use x="452.490234" xlink:href="#DejaVuSans-2e"/>
       <use x="484.277344" xlink:href="#DejaVuSans-30"/>
       <use x="547.900391" xlink:href="#DejaVuSans-5d"/>
      </g>
     </g>
    </g>
    <g id="xtick_5">
     <g id="line2d_5">
      <g>
       <use style="stroke:#000000;stroke-width:0.8;" x="311.603774" xlink:href="#m37c190cf63" y="1260"/>
      </g>
     </g>
     <g id="text_5">
      <!-- (13.0, 14.0] -->
      <defs>
       <path d="M 40.578125 39.3125 
Q 47.65625 37.796875 51.625 33 
Q 55.609375 28.21875 55.609375 21.1875 
Q 55.609375 10.40625 48.1875 4.484375 
Q 40.765625 -1.421875 27.09375 -1.421875 
Q 22.515625 -1.421875 17.65625 -0.515625 
Q 12.796875 0.390625 7.625 2.203125 
L 7.625 11.71875 
Q 11.71875 9.328125 16.59375 8.109375 
Q 21.484375 6.890625 26.8125 6.890625 
Q 36.078125 6.890625 40.9375 10.546875 
Q 45.796875 14.203125 45.796875 21.1875 
Q 45.796875 27.640625 41.28125 31.265625 
Q 36.765625 34.90625 28.71875 34.90625 
L 20.21875 34.90625 
L 20.21875 43.015625 
L 29.109375 43.015625 
Q 36.375 43.015625 40.234375 45.921875 
Q 44.09375 48.828125 44.09375 54.296875 
Q 44.09375 59.90625 40.109375 62.90625 
Q 36.140625 65.921875 28.71875 65.921875 
Q 24.65625 65.921875 20.015625 65.03125 
Q 15.375 64.15625 9.8125 62.3125 
L 9.8125 71.09375 
Q 15.4375 72.65625 20.34375 73.4375 
Q 25.25 74.21875 29.59375 74.21875 
Q 40.828125 74.21875 47.359375 69.109375 
Q 53.90625 64.015625 53.90625 55.328125 
Q 53.90625 49.265625 50.4375 45.09375 
Q 46.96875 40.921875 40.578125 39.3125 
z
" id="DejaVuSans-33"/>
      </defs>
      <g transform="translate(318.226274 1407.8575)rotate(-90)scale(0.24 -0.24)">
       <use xlink:href="#DejaVuSans-28"/>
       <use x="39.013672" xlink:href="#DejaVuSans-31"/>
       <use x="102.636719" xlink:href="#DejaVuSans-33"/>
       <use x="166.259766" xlink:href="#DejaVuSans-2e"/>
       <use x="198.046875" xlink:href="#DejaVuSans-30"/>
       <use x="261.669922" xlink:href="#DejaVuSans-2c"/>
       <use x="293.457031" xlink:href="#DejaVuSans-20"/>
       <use x="325.244141" xlink:href="#DejaVuSans-31"/>
       <use x="388.867188" xlink:href="#DejaVuSans-34"/>
       <use x="452.490234" xlink:href="#DejaVuSans-2e"/>
       <use x="484.277344" xlink:href="#DejaVuSans-30"/>
       <use x="547.900391" xlink:href="#DejaVuSans-5d"/>
      </g>
     </g>
    </g>
    <g id="xtick_6">
     <g id="line2d_6">
      <g>
       <use style="stroke:#000000;stroke-width:0.8;" x="343.188679" xlink:href="#m37c190cf63" y="1260"/>
      </g>
     </g>
     <g id="text_6">
      <!-- (16.0, 17.0] -->
      <defs>
       <path d="M 33.015625 40.375 
Q 26.375 40.375 22.484375 35.828125 
Q 18.609375 31.296875 18.609375 23.390625 
Q 18.609375 15.53125 22.484375 10.953125 
Q 26.375 6.390625 33.015625 6.390625 
Q 39.65625 6.390625 43.53125 10.953125 
Q 47.40625 15.53125 47.40625 23.390625 
Q 47.40625 31.296875 43.53125 35.828125 
Q 39.65625 40.375 33.015625 40.375 
z
M 52.59375 71.296875 
L 52.59375 62.3125 
Q 48.875 64.0625 45.09375 64.984375 
Q 41.3125 65.921875 37.59375 65.921875 
Q 27.828125 65.921875 22.671875 59.328125 
Q 17.53125 52.734375 16.796875 39.40625 
Q 19.671875 43.65625 24.015625 45.921875 
Q 28.375 48.1875 33.59375 48.1875 
Q 44.578125 48.1875 50.953125 41.515625 
Q 57.328125 34.859375 57.328125 23.390625 
Q 57.328125 12.15625 50.6875 5.359375 
Q 44.046875 -1.421875 33.015625 -1.421875 
Q 20.359375 -1.421875 13.671875 8.265625 
Q 6.984375 17.96875 6.984375 36.375 
Q 6.984375 53.65625 15.1875 63.9375 
Q 23.390625 74.21875 37.203125 74.21875 
Q 40.921875 74.21875 44.703125 73.484375 
Q 48.484375 72.75 52.59375 71.296875 
z
" id="DejaVuSans-36"/>
      </defs>
      <g transform="translate(349.811179 1407.8575)rotate(-90)scale(0.24 -0.24)">
       <use xlink:href="#DejaVuSans-28"/>
       <use x="39.013672" xlink:href="#DejaVuSans-31"/>
       <use x="102.636719" xlink:href="#DejaVuSans-36"/>
       <use x="166.259766" xlink:href="#DejaVuSans-2e"/>
       <use x="198.046875" xlink:href="#DejaVuSans-30"/>
       <use x="261.669922" xlink:href="#DejaVuSans-2c"/>
       <use x="293.457031" xlink:href="#DejaVuSans-20"/>
       <use x="325.244141" xlink:href="#DejaVuSans-31"/>
       <use x="388.867188" xlink:href="#DejaVuSans-37"/>
       <use x="452.490234" xlink:href="#DejaVuSans-2e"/>
       <use x="484.277344" xlink:href="#DejaVuSans-30"/>
       <use x="547.900391" xlink:href="#DejaVuSans-5d"/>
      </g>
     </g>
    </g>
    <g id="xtick_7">
     <g id="line2d_7">
      <g>
       <use style="stroke:#000000;stroke-width:0.8;" x="374.773585" xlink:href="#m37c190cf63" y="1260"/>
      </g>
     </g>
     <g id="text_7">
      <!-- (19.0, 20.0] -->
      <g transform="translate(381.396085 1407.8575)rotate(-90)scale(0.24 -0.24)">
       <use xlink:href="#DejaVuSans-28"/>
       <use x="39.013672" xlink:href="#DejaVuSans-31"/>
       <use x="102.636719" xlink:href="#DejaVuSans-39"/>
       <use x="166.259766" xlink:href="#DejaVuSans-2e"/>
       <use x="198.046875" xlink:href="#DejaVuSans-30"/>
       <use x="261.669922" xlink:href="#DejaVuSans-2c"/>
       <use x="293.457031" xlink:href="#DejaVuSans-20"/>
       <use x="325.244141" xlink:href="#DejaVuSans-32"/>
       <use x="388.867188" xlink:href="#DejaVuSans-30"/>
       <use x="452.490234" xlink:href="#DejaVuSans-2e"/>
       <use x="484.277344" xlink:href="#DejaVuSans-30"/>
       <use x="547.900391" xlink:href="#DejaVuSans-5d"/>
      </g>
     </g>
    </g>
    <g id="xtick_8">
     <g id="line2d_8">
      <g>
       <use style="stroke:#000000;stroke-width:0.8;" x="406.358491" xlink:href="#m37c190cf63" y="1260"/>
      </g>
     </g>
     <g id="text_8">
      <!-- (22.0, 23.0] -->
      <g transform="translate(412.980991 1407.8575)rotate(-90)scale(0.24 -0.24)">
       <use xlink:href="#DejaVuSans-28"/>
       <use x="39.013672" xlink:href="#DejaVuSans-32"/>
       <use x="102.636719" xlink:href="#DejaVuSans-32"/>
       <use x="166.259766" xlink:href="#DejaVuSans-2e"/>
       <use x="198.046875" xlink:href="#DejaVuSans-30"/>
       <use x="261.669922" xlink:href="#DejaVuSans-2c"/>
       <use x="293.457031" xlink:href="#DejaVuSans-20"/>
       <use x="325.244141" xlink:href="#DejaVuSans-32"/>
       <use x="388.867188" xlink:href="#DejaVuSans-33"/>
       <use x="452.490234" xlink:href="#DejaVuSans-2e"/>
       <use x="484.277344" xlink:href="#DejaVuSans-30"/>
       <use x="547.900391" xlink:href="#DejaVuSans-5d"/>
      </g>
     </g>
    </g>
    <g id="xtick_9">
     <g id="line2d_9">
      <g>
       <use style="stroke:#000000;stroke-width:0.8;" x="437.943396" xlink:href="#m37c190cf63" y="1260"/>
      </g>
     </g>
     <g id="text_9">
      <!-- (25.0, 26.0] -->
      <g transform="translate(444.565896 1407.8575)rotate(-90)scale(0.24 -0.24)">
       <use xlink:href="#DejaVuSans-28"/>
       <use x="39.013672" xlink:href="#DejaVuSans-32"/>
       <use x="102.636719" xlink:href="#DejaVuSans-35"/>
       <use x="166.259766" xlink:href="#DejaVuSans-2e"/>
       <use x="198.046875" xlink:href="#DejaVuSans-30"/>
       <use x="261.669922" xlink:href="#DejaVuSans-2c"/>
       <use x="293.457031" xlink:href="#DejaVuSans-20"/>
       <use x="325.244141" xlink:href="#DejaVuSans-32"/>
       <use x="388.867188" xlink:href="#DejaVuSans-36"/>
       <use x="452.490234" xlink:href="#DejaVuSans-2e"/>
       <use x="484.277344" xlink:href="#DejaVuSans-30"/>
       <use x="547.900391" xlink:href="#DejaVuSans-5d"/>
      </g>
     </g>
    </g>
    <g id="xtick_10">
     <g id="line2d_10">
      <g>
       <use style="stroke:#000000;stroke-width:0.8;" x="469.528302" xlink:href="#m37c190cf63" y="1260"/>
      </g>
     </g>
     <g id="text_10">
      <!-- (28.0, 29.0] -->
      <g transform="translate(476.150802 1407.8575)rotate(-90)scale(0.24 -0.24)">
       <use xlink:href="#DejaVuSans-28"/>
       <use x="39.013672" xlink:href="#DejaVuSans-32"/>
       <use x="102.636719" xlink:href="#DejaVuSans-38"/>
       <use x="166.259766" xlink:href="#DejaVuSans-2e"/>
       <use x="198.046875" xlink:href="#DejaVuSans-30"/>
       <use x="261.669922" xlink:href="#DejaVuSans-2c"/>
       <use x="293.457031" xlink:href="#DejaVuSans-20"/>
       <use x="325.244141" xlink:href="#DejaVuSans-32"/>
       <use x="388.867188" xlink:href="#DejaVuSans-39"/>
       <use x="452.490234" xlink:href="#DejaVuSans-2e"/>
       <use x="484.277344" xlink:href="#DejaVuSans-30"/>
       <use x="547.900391" xlink:href="#DejaVuSans-5d"/>
      </g>
     </g>
    </g>
    <g id="xtick_11">
     <g id="line2d_11">
      <g>
       <use style="stroke:#000000;stroke-width:0.8;" x="501.113208" xlink:href="#m37c190cf63" y="1260"/>
      </g>
     </g>
     <g id="text_11">
      <!-- (31.0, 32.0] -->
      <g transform="translate(507.735708 1407.8575)rotate(-90)scale(0.24 -0.24)">
       <use xlink:href="#DejaVuSans-28"/>
       <use x="39.013672" xlink:href="#DejaVuSans-33"/>
       <use x="102.636719" xlink:href="#DejaVuSans-31"/>
       <use x="166.259766" xlink:href="#DejaVuSans-2e"/>
       <use x="198.046875" xlink:href="#DejaVuSans-30"/>
       <use x="261.669922" xlink:href="#DejaVuSans-2c"/>
       <use x="293.457031" xlink:href="#DejaVuSans-20"/>
       <use x="325.244141" xlink:href="#DejaVuSans-33"/>
       <use x="388.867188" xlink:href="#DejaVuSans-32"/>
       <use x="452.490234" xlink:href="#DejaVuSans-2e"/>
       <use x="484.277344" xlink:href="#DejaVuSans-30"/>
       <use x="547.900391" xlink:href="#DejaVuSans-5d"/>
      </g>
     </g>
    </g>
    <g id="xtick_12">
     <g id="line2d_12">
      <g>
       <use style="stroke:#000000;stroke-width:0.8;" x="532.698113" xlink:href="#m37c190cf63" y="1260"/>
      </g>
     </g>
     <g id="text_12">
      <!-- (34.0, 35.0] -->
      <g transform="translate(539.320613 1407.8575)rotate(-90)scale(0.24 -0.24)">
       <use xlink:href="#DejaVuSans-28"/>
       <use x="39.013672" xlink:href="#DejaVuSans-33"/>
       <use x="102.636719" xlink:href="#DejaVuSans-34"/>
       <use x="166.259766" xlink:href="#DejaVuSans-2e"/>
       <use x="198.046875" xlink:href="#DejaVuSans-30"/>
       <use x="261.669922" xlink:href="#DejaVuSans-2c"/>
       <use x="293.457031" xlink:href="#DejaVuSans-20"/>
       <use x="325.244141" xlink:href="#DejaVuSans-33"/>
       <use x="388.867188" xlink:href="#DejaVuSans-35"/>
       <use x="452.490234" xlink:href="#DejaVuSans-2e"/>
       <use x="484.277344" xlink:href="#DejaVuSans-30"/>
       <use x="547.900391" xlink:href="#DejaVuSans-5d"/>
      </g>
     </g>
    </g>
    <g id="xtick_13">
     <g id="line2d_13">
      <g>
       <use style="stroke:#000000;stroke-width:0.8;" x="564.283019" xlink:href="#m37c190cf63" y="1260"/>
      </g>
     </g>
     <g id="text_13">
      <!-- (37.0, 38.0] -->
      <g transform="translate(570.905519 1407.8575)rotate(-90)scale(0.24 -0.24)">
       <use xlink:href="#DejaVuSans-28"/>
       <use x="39.013672" xlink:href="#DejaVuSans-33"/>
       <use x="102.636719" xlink:href="#DejaVuSans-37"/>
       <use x="166.259766" xlink:href="#DejaVuSans-2e"/>
       <use x="198.046875" xlink:href="#DejaVuSans-30"/>
       <use x="261.669922" xlink:href="#DejaVuSans-2c"/>
       <use x="293.457031" xlink:href="#DejaVuSans-20"/>
       <use x="325.244141" xlink:href="#DejaVuSans-33"/>
       <use x="388.867188" xlink:href="#DejaVuSans-38"/>
       <use x="452.490234" xlink:href="#DejaVuSans-2e"/>
       <use x="484.277344" xlink:href="#DejaVuSans-30"/>
       <use x="547.900391" xlink:href="#DejaVuSans-5d"/>
      </g>
     </g>
    </g>
    <g id="xtick_14">
     <g id="line2d_14">
      <g>
       <use style="stroke:#000000;stroke-width:0.8;" x="595.867925" xlink:href="#m37c190cf63" y="1260"/>
      </g>
     </g>
     <g id="text_14">
      <!-- (40.0, 41.0] -->
      <g transform="translate(602.490425 1407.8575)rotate(-90)scale(0.24 -0.24)">
       <use xlink:href="#DejaVuSans-28"/>
       <use x="39.013672" xlink:href="#DejaVuSans-34"/>
       <use x="102.636719" xlink:href="#DejaVuSans-30"/>
       <use x="166.259766" xlink:href="#DejaVuSans-2e"/>
       <use x="198.046875" xlink:href="#DejaVuSans-30"/>
       <use x="261.669922" xlink:href="#DejaVuSans-2c"/>
       <use x="293.457031" xlink:href="#DejaVuSans-20"/>
       <use x="325.244141" xlink:href="#DejaVuSans-34"/>
       <use x="388.867188" xlink:href="#DejaVuSans-31"/>
       <use x="452.490234" xlink:href="#DejaVuSans-2e"/>
       <use x="484.277344" xlink:href="#DejaVuSans-30"/>
       <use x="547.900391" xlink:href="#DejaVuSans-5d"/>
      </g>
     </g>
    </g>
    <g id="xtick_15">
     <g id="line2d_15">
      <g>
       <use style="stroke:#000000;stroke-width:0.8;" x="627.45283" xlink:href="#m37c190cf63" y="1260"/>
      </g>
     </g>
     <g id="text_15">
      <!-- (43.0, 44.0] -->
      <g transform="translate(634.07533 1407.8575)rotate(-90)scale(0.24 -0.24)">
       <use xlink:href="#DejaVuSans-28"/>
       <use x="39.013672" xlink:href="#DejaVuSans-34"/>
       <use x="102.636719" xlink:href="#DejaVuSans-33"/>
       <use x="166.259766" xlink:href="#DejaVuSans-2e"/>
       <use x="198.046875" xlink:href="#DejaVuSans-30"/>
       <use x="261.669922" xlink:href="#DejaVuSans-2c"/>
       <use x="293.457031" xlink:href="#DejaVuSans-20"/>
       <use x="325.244141" xlink:href="#DejaVuSans-34"/>
       <use x="388.867188" xlink:href="#DejaVuSans-34"/>
       <use x="452.490234" xlink:href="#DejaVuSans-2e"/>
       <use x="484.277344" xlink:href="#DejaVuSans-30"/>
       <use x="547.900391" xlink:href="#DejaVuSans-5d"/>
      </g>
     </g>
    </g>
    <g id="xtick_16">
     <g id="line2d_16">
      <g>
       <use style="stroke:#000000;stroke-width:0.8;" x="659.037736" xlink:href="#m37c190cf63" y="1260"/>
      </g>
     </g>
     <g id="text_16">
      <!-- (46.0, 47.0] -->
      <g transform="translate(665.660236 1407.8575)rotate(-90)scale(0.24 -0.24)">
       <use xlink:href="#DejaVuSans-28"/>
       <use x="39.013672" xlink:href="#DejaVuSans-34"/>
       <use x="102.636719" xlink:href="#DejaVuSans-36"/>
       <use x="166.259766" xlink:href="#DejaVuSans-2e"/>
       <use x="198.046875" xlink:href="#DejaVuSans-30"/>
       <use x="261.669922" xlink:href="#DejaVuSans-2c"/>
       <use x="293.457031" xlink:href="#DejaVuSans-20"/>
       <use x="325.244141" xlink:href="#DejaVuSans-34"/>
       <use x="388.867188" xlink:href="#DejaVuSans-37"/>
       <use x="452.490234" xlink:href="#DejaVuSans-2e"/>
       <use x="484.277344" xlink:href="#DejaVuSans-30"/>
       <use x="547.900391" xlink:href="#DejaVuSans-5d"/>
      </g>
     </g>
    </g>
    <g id="xtick_17">
     <g id="line2d_17">
      <g>
       <use style="stroke:#000000;stroke-width:0.8;" x="690.622642" xlink:href="#m37c190cf63" y="1260"/>
      </g>
     </g>
     <g id="text_17">
      <!-- (49.0, 50.0] -->
      <g transform="translate(697.245142 1407.8575)rotate(-90)scale(0.24 -0.24)">
       <use xlink:href="#DejaVuSans-28"/>
       <use x="39.013672" xlink:href="#DejaVuSans-34"/>
       <use x="102.636719" xlink:href="#DejaVuSans-39"/>
       <use x="166.259766" xlink:href="#DejaVuSans-2e"/>
       <use x="198.046875" xlink:href="#DejaVuSans-30"/>
       <use x="261.669922" xlink:href="#DejaVuSans-2c"/>
       <use x="293.457031" xlink:href="#DejaVuSans-20"/>
       <use x="325.244141" xlink:href="#DejaVuSans-35"/>
       <use x="388.867188" xlink:href="#DejaVuSans-30"/>
       <use x="452.490234" xlink:href="#DejaVuSans-2e"/>
       <use x="484.277344" xlink:href="#DejaVuSans-30"/>
       <use x="547.900391" xlink:href="#DejaVuSans-5d"/>
      </g>
     </g>
    </g>
    <g id="xtick_18">
     <g id="line2d_18">
      <g>
       <use style="stroke:#000000;stroke-width:0.8;" x="722.207547" xlink:href="#m37c190cf63" y="1260"/>
      </g>
     </g>
     <g id="text_18">
      <!-- (52.0, 53.0] -->
      <g transform="translate(728.830047 1407.8575)rotate(-90)scale(0.24 -0.24)">
       <use xlink:href="#DejaVuSans-28"/>
       <use x="39.013672" xlink:href="#DejaVuSans-35"/>
       <use x="102.636719" xlink:href="#DejaVuSans-32"/>
       <use x="166.259766" xlink:href="#DejaVuSans-2e"/>
       <use x="198.046875" xlink:href="#DejaVuSans-30"/>
       <use x="261.669922" xlink:href="#DejaVuSans-2c"/>
       <use x="293.457031" xlink:href="#DejaVuSans-20"/>
       <use x="325.244141" xlink:href="#DejaVuSans-35"/>
       <use x="388.867188" xlink:href="#DejaVuSans-33"/>
       <use x="452.490234" xlink:href="#DejaVuSans-2e"/>
       <use x="484.277344" xlink:href="#DejaVuSans-30"/>
       <use x="547.900391" xlink:href="#DejaVuSans-5d"/>
      </g>
     </g>
    </g>
    <g id="xtick_19">
     <g id="line2d_19">
      <g>
       <use style="stroke:#000000;stroke-width:0.8;" x="753.792453" xlink:href="#m37c190cf63" y="1260"/>
      </g>
     </g>
     <g id="text_19">
      <!-- (56.0, 57.0] -->
      <g transform="translate(760.414953 1407.8575)rotate(-90)scale(0.24 -0.24)">
       <use xlink:href="#DejaVuSans-28"/>
       <use x="39.013672" xlink:href="#DejaVuSans-35"/>
       <use x="102.636719" xlink:href="#DejaVuSans-36"/>
       <use x="166.259766" xlink:href="#DejaVuSans-2e"/>
       <use x="198.046875" xlink:href="#DejaVuSans-30"/>
       <use x="261.669922" xlink:href="#DejaVuSans-2c"/>
       <use x="293.457031" xlink:href="#DejaVuSans-20"/>
       <use x="325.244141" xlink:href="#DejaVuSans-35"/>
       <use x="388.867188" xlink:href="#DejaVuSans-37"/>
       <use x="452.490234" xlink:href="#DejaVuSans-2e"/>
       <use x="484.277344" xlink:href="#DejaVuSans-30"/>
       <use x="547.900391" xlink:href="#DejaVuSans-5d"/>
      </g>
     </g>
    </g>
    <g id="xtick_20">
     <g id="line2d_20">
      <g>
       <use style="stroke:#000000;stroke-width:0.8;" x="785.377358" xlink:href="#m37c190cf63" y="1260"/>
      </g>
     </g>
     <g id="text_20">
      <!-- (60.0, 61.0] -->
      <g transform="translate(791.999858 1407.8575)rotate(-90)scale(0.24 -0.24)">
       <use xlink:href="#DejaVuSans-28"/>
       <use x="39.013672" xlink:href="#DejaVuSans-36"/>
       <use x="102.636719" xlink:href="#DejaVuSans-30"/>
       <use x="166.259766" xlink:href="#DejaVuSans-2e"/>
       <use x="198.046875" xlink:href="#DejaVuSans-30"/>
       <use x="261.669922" xlink:href="#DejaVuSans-2c"/>
       <use x="293.457031" xlink:href="#DejaVuSans-20"/>
       <use x="325.244141" xlink:href="#DejaVuSans-36"/>
       <use x="388.867188" xlink:href="#DejaVuSans-31"/>
       <use x="452.490234" xlink:href="#DejaVuSans-2e"/>
       <use x="484.277344" xlink:href="#DejaVuSans-30"/>
       <use x="547.900391" xlink:href="#DejaVuSans-5d"/>
      </g>
     </g>
    </g>
    <g id="xtick_21">
     <g id="line2d_21">
      <g>
       <use style="stroke:#000000;stroke-width:0.8;" x="816.962264" xlink:href="#m37c190cf63" y="1260"/>
      </g>
     </g>
     <g id="text_21">
      <!-- (64.0, 66.0] -->
      <g transform="translate(823.584764 1407.8575)rotate(-90)scale(0.24 -0.24)">
       <use xlink:href="#DejaVuSans-28"/>
       <use x="39.013672" xlink:href="#DejaVuSans-36"/>
       <use x="102.636719" xlink:href="#DejaVuSans-34"/>
       <use x="166.259766" xlink:href="#DejaVuSans-2e"/>
       <use x="198.046875" xlink:href="#DejaVuSans-30"/>
       <use x="261.669922" xlink:href="#DejaVuSans-2c"/>
       <use x="293.457031" xlink:href="#DejaVuSans-20"/>
       <use x="325.244141" xlink:href="#DejaVuSans-36"/>
       <use x="388.867188" xlink:href="#DejaVuSans-36"/>
       <use x="452.490234" xlink:href="#DejaVuSans-2e"/>
       <use x="484.277344" xlink:href="#DejaVuSans-30"/>
       <use x="547.900391" xlink:href="#DejaVuSans-5d"/>
      </g>
     </g>
    </g>
    <g id="xtick_22">
     <g id="line2d_22">
      <g>
       <use style="stroke:#000000;stroke-width:0.8;" x="848.54717" xlink:href="#m37c190cf63" y="1260"/>
      </g>
     </g>
     <g id="text_22">
      <!-- (70.0, 72.0] -->
      <g transform="translate(855.16967 1407.8575)rotate(-90)scale(0.24 -0.24)">
       <use xlink:href="#DejaVuSans-28"/>
       <use x="39.013672" xlink:href="#DejaVuSans-37"/>
       <use x="102.636719" xlink:href="#DejaVuSans-30"/>
       <use x="166.259766" xlink:href="#DejaVuSans-2e"/>
       <use x="198.046875" xlink:href="#DejaVuSans-30"/>
       <use x="261.669922" xlink:href="#DejaVuSans-2c"/>
       <use x="293.457031" xlink:href="#DejaVuSans-20"/>
       <use x="325.244141" xlink:href="#DejaVuSans-37"/>
       <use x="388.867188" xlink:href="#DejaVuSans-32"/>
       <use x="452.490234" xlink:href="#DejaVuSans-2e"/>
       <use x="484.277344" xlink:href="#DejaVuSans-30"/>
       <use x="547.900391" xlink:href="#DejaVuSans-5d"/>
      </g>
     </g>
    </g>
    <g id="xtick_23">
     <g id="line2d_23">
      <g>
       <use style="stroke:#000000;stroke-width:0.8;" x="880.132075" xlink:href="#m37c190cf63" y="1260"/>
      </g>
     </g>
     <g id="text_23">
      <!-- (76.84, 79.0] -->
      <g transform="translate(886.754575 1423.1275)rotate(-90)scale(0.24 -0.24)">
       <use xlink:href="#DejaVuSans-28"/>
       <use x="39.013672" xlink:href="#DejaVuSans-37"/>
       <use x="102.636719" xlink:href="#DejaVuSans-36"/>
       <use x="166.259766" xlink:href="#DejaVuSans-2e"/>
       <use x="198.046875" xlink:href="#DejaVuSans-38"/>
       <use x="261.669922" xlink:href="#DejaVuSans-34"/>
       <use x="325.292969" xlink:href="#DejaVuSans-2c"/>
       <use x="357.080078" xlink:href="#DejaVuSans-20"/>
       <use x="388.867188" xlink:href="#DejaVuSans-37"/>
       <use x="452.490234" xlink:href="#DejaVuSans-39"/>
       <use x="516.113281" xlink:href="#DejaVuSans-2e"/>
       <use x="547.900391" xlink:href="#DejaVuSans-30"/>
       <use x="611.523438" xlink:href="#DejaVuSans-5d"/>
      </g>
     </g>
    </g>
    <g id="xtick_24">
     <g id="line2d_24">
      <g>
       <use style="stroke:#000000;stroke-width:0.8;" x="911.716981" xlink:href="#m37c190cf63" y="1260"/>
      </g>
     </g>
     <g id="text_24">
      <!-- (85.0, 88.0] -->
      <g transform="translate(918.339481 1407.8575)rotate(-90)scale(0.24 -0.24)">
       <use xlink:href="#DejaVuSans-28"/>
       <use x="39.013672" xlink:href="#DejaVuSans-38"/>
       <use x="102.636719" xlink:href="#DejaVuSans-35"/>
       <use x="166.259766" xlink:href="#DejaVuSans-2e"/>
       <use x="198.046875" xlink:href="#DejaVuSans-30"/>
       <use x="261.669922" xlink:href="#DejaVuSans-2c"/>
       <use x="293.457031" xlink:href="#DejaVuSans-20"/>
       <use x="325.244141" xlink:href="#DejaVuSans-38"/>
       <use x="388.867188" xlink:href="#DejaVuSans-38"/>
       <use x="452.490234" xlink:href="#DejaVuSans-2e"/>
       <use x="484.277344" xlink:href="#DejaVuSans-30"/>
       <use x="547.900391" xlink:href="#DejaVuSans-5d"/>
      </g>
     </g>
    </g>
    <g id="xtick_25">
     <g id="line2d_25">
      <g>
       <use style="stroke:#000000;stroke-width:0.8;" x="943.301887" xlink:href="#m37c190cf63" y="1260"/>
      </g>
     </g>
     <g id="text_25">
      <!-- (94.0, 97.0] -->
      <g transform="translate(949.924387 1407.8575)rotate(-90)scale(0.24 -0.24)">
       <use xlink:href="#DejaVuSans-28"/>
       <use x="39.013672" xlink:href="#DejaVuSans-39"/>
       <use x="102.636719" xlink:href="#DejaVuSans-34"/>
       <use x="166.259766" xlink:href="#DejaVuSans-2e"/>
       <use x="198.046875" xlink:href="#DejaVuSans-30"/>
       <use x="261.669922" xlink:href="#DejaVuSans-2c"/>
       <use x="293.457031" xlink:href="#DejaVuSans-20"/>
       <use x="325.244141" xlink:href="#DejaVuSans-39"/>
       <use x="388.867188" xlink:href="#DejaVuSans-37"/>
       <use x="452.490234" xlink:href="#DejaVuSans-2e"/>
       <use x="484.277344" xlink:href="#DejaVuSans-30"/>
       <use x="547.900391" xlink:href="#DejaVuSans-5d"/>
      </g>
     </g>
    </g>
    <g id="xtick_26">
     <g id="line2d_26">
      <g>
       <use style="stroke:#000000;stroke-width:0.8;" x="974.886792" xlink:href="#m37c190cf63" y="1260"/>
      </g>
     </g>
     <g id="text_26">
      <!-- (104.0, 109.0] -->
      <g transform="translate(981.509292 1438.3975)rotate(-90)scale(0.24 -0.24)">
       <use xlink:href="#DejaVuSans-28"/>
       <use x="39.013672" xlink:href="#DejaVuSans-31"/>
       <use x="102.636719" xlink:href="#DejaVuSans-30"/>
       <use x="166.259766" xlink:href="#DejaVuSans-34"/>
       <use x="229.882812" xlink:href="#DejaVuSans-2e"/>
       <use x="261.669922" xlink:href="#DejaVuSans-30"/>
       <use x="325.292969" xlink:href="#DejaVuSans-2c"/>
       <use x="357.080078" xlink:href="#DejaVuSans-20"/>
       <use x="388.867188" xlink:href="#DejaVuSans-31"/>
       <use x="452.490234" xlink:href="#DejaVuSans-30"/>
       <use x="516.113281" xlink:href="#DejaVuSans-39"/>
       <use x="579.736328" xlink:href="#DejaVuSans-2e"/>
       <use x="611.523438" xlink:href="#DejaVuSans-30"/>
       <use x="675.146484" xlink:href="#DejaVuSans-5d"/>
      </g>
     </g>
    </g>
    <g id="xtick_27">
     <g id="line2d_27">
      <g>
       <use style="stroke:#000000;stroke-width:0.8;" x="1006.471698" xlink:href="#m37c190cf63" y="1260"/>
      </g>
     </g>
     <g id="text_27">
      <!-- (116.0, 121.0] -->
      <g transform="translate(1013.094198 1438.3975)rotate(-90)scale(0.24 -0.24)">
       <use xlink:href="#DejaVuSans-28"/>
       <use x="39.013672" xlink:href="#DejaVuSans-31"/>
       <use x="102.636719" xlink:href="#DejaVuSans-31"/>
       <use x="166.259766" xlink:href="#DejaVuSans-36"/>
       <use x="229.882812" xlink:href="#DejaVuSans-2e"/>
       <use x="261.669922" xlink:href="#DejaVuSans-30"/>
       <use x="325.292969" xlink:href="#DejaVuSans-2c"/>
       <use x="357.080078" xlink:href="#DejaVuSans-20"/>
       <use x="388.867188" xlink:href="#DejaVuSans-31"/>
       <use x="452.490234" xlink:href="#DejaVuSans-32"/>
       <use x="516.113281" xlink:href="#DejaVuSans-31"/>
       <use x="579.736328" xlink:href="#DejaVuSans-2e"/>
       <use x="611.523438" xlink:href="#DejaVuSans-30"/>
       <use x="675.146484" xlink:href="#DejaVuSans-5d"/>
      </g>
     </g>
    </g>
    <g id="xtick_28">
     <g id="line2d_28">
      <g>
       <use style="stroke:#000000;stroke-width:0.8;" x="1038.056604" xlink:href="#m37c190cf63" y="1260"/>
      </g>
     </g>
     <g id="text_28">
      <!-- (131.0, 136.0] -->
      <g transform="translate(1044.679104 1438.3975)rotate(-90)scale(0.24 -0.24)">
       <use xlink:href="#DejaVuSans-28"/>
       <use x="39.013672" xlink:href="#DejaVuSans-31"/>
       <use x="102.636719" xlink:href="#DejaVuSans-33"/>
       <use x="166.259766" xlink:href="#DejaVuSans-31"/>
       <use x="229.882812" xlink:href="#DejaVuSans-2e"/>
       <use x="261.669922" xlink:href="#DejaVuSans-30"/>
       <use x="325.292969" xlink:href="#DejaVuSans-2c"/>
       <use x="357.080078" xlink:href="#DejaVuSans-20"/>
       <use x="388.867188" xlink:href="#DejaVuSans-31"/>
       <use x="452.490234" xlink:href="#DejaVuSans-33"/>
       <use x="516.113281" xlink:href="#DejaVuSans-36"/>
       <use x="579.736328" xlink:href="#DejaVuSans-2e"/>
       <use x="611.523438" xlink:href="#DejaVuSans-30"/>
       <use x="675.146484" xlink:href="#DejaVuSans-5d"/>
      </g>
     </g>
    </g>
    <g id="xtick_29">
     <g id="line2d_29">
      <g>
       <use style="stroke:#000000;stroke-width:0.8;" x="1069.641509" xlink:href="#m37c190cf63" y="1260"/>
      </g>
     </g>
     <g id="text_29">
      <!-- (149.962, 157.0] -->
      <g transform="translate(1076.264009 1468.9375)rotate(-90)scale(0.24 -0.24)">
       <use xlink:href="#DejaVuSans-28"/>
       <use x="39.013672" xlink:href="#DejaVuSans-31"/>
       <use x="102.636719" xlink:href="#DejaVuSans-34"/>
       <use x="166.259766" xlink:href="#DejaVuSans-39"/>
       <use x="229.882812" xlink:href="#DejaVuSans-2e"/>
       <use x="261.669922" xlink:href="#DejaVuSans-39"/>
       <use x="325.292969" xlink:href="#DejaVuSans-36"/>
       <use x="388.916016" xlink:href="#DejaVuSans-32"/>
       <use x="452.539062" xlink:href="#DejaVuSans-2c"/>
       <use x="484.326172" xlink:href="#DejaVuSans-20"/>
       <use x="516.113281" xlink:href="#DejaVuSans-31"/>
       <use x="579.736328" xlink:href="#DejaVuSans-35"/>
       <use x="643.359375" xlink:href="#DejaVuSans-37"/>
       <use x="706.982422" xlink:href="#DejaVuSans-2e"/>
       <use x="738.769531" xlink:href="#DejaVuSans-30"/>
       <use x="802.392578" xlink:href="#DejaVuSans-5d"/>
      </g>
     </g>
    </g>
    <g id="xtick_30">
     <g id="line2d_30">
      <g>
       <use style="stroke:#000000;stroke-width:0.8;" x="1101.226415" xlink:href="#m37c190cf63" y="1260"/>
      </g>
     </g>
     <g id="text_30">
      <!-- (173.0, 181.0] -->
      <g transform="translate(1107.848915 1438.3975)rotate(-90)scale(0.24 -0.24)">
       <use xlink:href="#DejaVuSans-28"/>
       <use x="39.013672" xlink:href="#DejaVuSans-31"/>
       <use x="102.636719" xlink:href="#DejaVuSans-37"/>
       <use x="166.259766" xlink:href="#DejaVuSans-33"/>
       <use x="229.882812" xlink:href="#DejaVuSans-2e"/>
       <use x="261.669922" xlink:href="#DejaVuSans-30"/>
       <use x="325.292969" xlink:href="#DejaVuSans-2c"/>
       <use x="357.080078" xlink:href="#DejaVuSans-20"/>
       <use x="388.867188" xlink:href="#DejaVuSans-31"/>
       <use x="452.490234" xlink:href="#DejaVuSans-38"/>
       <use x="516.113281" xlink:href="#DejaVuSans-31"/>
       <use x="579.736328" xlink:href="#DejaVuSans-2e"/>
       <use x="611.523438" xlink:href="#DejaVuSans-30"/>
       <use x="675.146484" xlink:href="#DejaVuSans-5d"/>
      </g>
     </g>
    </g>
    <g id="xtick_31">
     <g id="line2d_31">
      <g>
       <use style="stroke:#000000;stroke-width:0.8;" x="1132.811321" xlink:href="#m37c190cf63" y="1260"/>
      </g>
     </g>
     <g id="text_31">
      <!-- (203.0, 215.0] -->
      <g transform="translate(1139.433821 1438.3975)rotate(-90)scale(0.24 -0.24)">
       <use xlink:href="#DejaVuSans-28"/>
       <use x="39.013672" xlink:href="#DejaVuSans-32"/>
       <use x="102.636719" xlink:href="#DejaVuSans-30"/>
       <use x="166.259766" xlink:href="#DejaVuSans-33"/>
       <use x="229.882812" xlink:href="#DejaVuSans-2e"/>
       <use x="261.669922" xlink:href="#DejaVuSans-30"/>
       <use x="325.292969" xlink:href="#DejaVuSans-2c"/>
       <use x="357.080078" xlink:href="#DejaVuSans-20"/>
       <use x="388.867188" xlink:href="#DejaVuSans-32"/>
       <use x="452.490234" xlink:href="#DejaVuSans-31"/>
       <use x="516.113281" xlink:href="#DejaVuSans-35"/>
       <use x="579.736328" xlink:href="#DejaVuSans-2e"/>
       <use x="611.523438" xlink:href="#DejaVuSans-30"/>
       <use x="675.146484" xlink:href="#DejaVuSans-5d"/>
      </g>
     </g>
    </g>
    <g id="xtick_32">
     <g id="line2d_32">
      <g>
       <use style="stroke:#000000;stroke-width:0.8;" x="1164.396226" xlink:href="#m37c190cf63" y="1260"/>
      </g>
     </g>
     <g id="text_32">
      <!-- (239.023, 256.0] -->
      <g transform="translate(1171.018726 1468.9375)rotate(-90)scale(0.24 -0.24)">
       <use xlink:href="#DejaVuSans-28"/>
       <use x="39.013672" xlink:href="#DejaVuSans-32"/>
       <use x="102.636719" xlink:href="#DejaVuSans-33"/>
       <use x="166.259766" xlink:href="#DejaVuSans-39"/>
       <use x="229.882812" xlink:href="#DejaVuSans-2e"/>
       <use x="261.669922" xlink:href="#DejaVuSans-30"/>
       <use x="325.292969" xlink:href="#DejaVuSans-32"/>
       <use x="388.916016" xlink:href="#DejaVuSans-33"/>
       <use x="452.539062" xlink:href="#DejaVuSans-2c"/>
       <use x="484.326172" xlink:href="#DejaVuSans-20"/>
       <use x="516.113281" xlink:href="#DejaVuSans-32"/>
       <use x="579.736328" xlink:href="#DejaVuSans-35"/>
       <use x="643.359375" xlink:href="#DejaVuSans-36"/>
       <use x="706.982422" xlink:href="#DejaVuSans-2e"/>
       <use x="738.769531" xlink:href="#DejaVuSans-30"/>
       <use x="802.392578" xlink:href="#DejaVuSans-5d"/>
      </g>
     </g>
    </g>
    <g id="xtick_33">
     <g id="line2d_33">
      <g>
       <use style="stroke:#000000;stroke-width:0.8;" x="1195.981132" xlink:href="#m37c190cf63" y="1260"/>
      </g>
     </g>
     <g id="text_33">
      <!-- (296.0, 323.0] -->
      <g transform="translate(1202.603632 1438.3975)rotate(-90)scale(0.24 -0.24)">
       <use xlink:href="#DejaVuSans-28"/>
       <use x="39.013672" xlink:href="#DejaVuSans-32"/>
       <use x="102.636719" xlink:href="#DejaVuSans-39"/>
       <use x="166.259766" xlink:href="#DejaVuSans-36"/>
       <use x="229.882812" xlink:href="#DejaVuSans-2e"/>
       <use x="261.669922" xlink:href="#DejaVuSans-30"/>
       <use x="325.292969" xlink:href="#DejaVuSans-2c"/>
       <use x="357.080078" xlink:href="#DejaVuSans-20"/>
       <use x="388.867188" xlink:href="#DejaVuSans-33"/>
       <use x="452.490234" xlink:href="#DejaVuSans-32"/>
       <use x="516.113281" xlink:href="#DejaVuSans-33"/>
       <use x="579.736328" xlink:href="#DejaVuSans-2e"/>
       <use x="611.523438" xlink:href="#DejaVuSans-30"/>
       <use x="675.146484" xlink:href="#DejaVuSans-5d"/>
      </g>
     </g>
    </g>
    <g id="xtick_34">
     <g id="line2d_34">
      <g>
       <use style="stroke:#000000;stroke-width:0.8;" x="1227.566038" xlink:href="#m37c190cf63" y="1260"/>
      </g>
     </g>
     <g id="text_34">
      <!-- (401.0, 448.252] -->
      <g transform="translate(1234.188538 1468.9375)rotate(-90)scale(0.24 -0.24)">
       <use xlink:href="#DejaVuSans-28"/>
       <use x="39.013672" xlink:href="#DejaVuSans-34"/>
       <use x="102.636719" xlink:href="#DejaVuSans-30"/>
       <use x="166.259766" xlink:href="#DejaVuSans-31"/>
       <use x="229.882812" xlink:href="#DejaVuSans-2e"/>
       <use x="261.669922" xlink:href="#DejaVuSans-30"/>
       <use x="325.292969" xlink:href="#DejaVuSans-2c"/>
       <use x="357.080078" xlink:href="#DejaVuSans-20"/>
       <use x="388.867188" xlink:href="#DejaVuSans-34"/>
       <use x="452.490234" xlink:href="#DejaVuSans-34"/>
       <use x="516.113281" xlink:href="#DejaVuSans-38"/>
       <use x="579.736328" xlink:href="#DejaVuSans-2e"/>
       <use x="611.523438" xlink:href="#DejaVuSans-32"/>
       <use x="675.146484" xlink:href="#DejaVuSans-35"/>
       <use x="738.769531" xlink:href="#DejaVuSans-32"/>
       <use x="802.392578" xlink:href="#DejaVuSans-5d"/>
      </g>
     </g>
    </g>
    <g id="xtick_35">
     <g id="line2d_35">
      <g>
       <use style="stroke:#000000;stroke-width:0.8;" x="1259.150943" xlink:href="#m37c190cf63" y="1260"/>
      </g>
     </g>
     <g id="text_35">
      <!-- (574.0, 655.939] -->
      <g transform="translate(1265.773443 1468.9375)rotate(-90)scale(0.24 -0.24)">
       <use xlink:href="#DejaVuSans-28"/>
       <use x="39.013672" xlink:href="#DejaVuSans-35"/>
       <use x="102.636719" xlink:href="#DejaVuSans-37"/>
       <use x="166.259766" xlink:href="#DejaVuSans-34"/>
       <use x="229.882812" xlink:href="#DejaVuSans-2e"/>
       <use x="261.669922" xlink:href="#DejaVuSans-30"/>
       <use x="325.292969" xlink:href="#DejaVuSans-2c"/>
       <use x="357.080078" xlink:href="#DejaVuSans-20"/>
       <use x="388.867188" xlink:href="#DejaVuSans-36"/>
       <use x="452.490234" xlink:href="#DejaVuSans-35"/>
       <use x="516.113281" xlink:href="#DejaVuSans-35"/>
       <use x="579.736328" xlink:href="#DejaVuSans-2e"/>
       <use x="611.523438" xlink:href="#DejaVuSans-39"/>
       <use x="675.146484" xlink:href="#DejaVuSans-33"/>
       <use x="738.769531" xlink:href="#DejaVuSans-39"/>
       <use x="802.392578" xlink:href="#DejaVuSans-5d"/>
      </g>
     </g>
    </g>
    <g id="xtick_36">
     <g id="line2d_36">
      <g>
       <use style="stroke:#000000;stroke-width:0.8;" x="1290.735849" xlink:href="#m37c190cf63" y="1260"/>
      </g>
     </g>
     <g id="text_36">
      <!-- (1074.084, 2928.0] -->
      <g transform="translate(1297.358349 1499.4775)rotate(-90)scale(0.24 -0.24)">
       <use xlink:href="#DejaVuSans-28"/>
       <use x="39.013672" xlink:href="#DejaVuSans-31"/>
       <use x="102.636719" xlink:href="#DejaVuSans-30"/>
       <use x="166.259766" xlink:href="#DejaVuSans-37"/>
       <use x="229.882812" xlink:href="#DejaVuSans-34"/>
       <use x="293.505859" xlink:href="#DejaVuSans-2e"/>
       <use x="325.292969" xlink:href="#DejaVuSans-30"/>
       <use x="388.916016" xlink:href="#DejaVuSans-38"/>
       <use x="452.539062" xlink:href="#DejaVuSans-34"/>
       <use x="516.162109" xlink:href="#DejaVuSans-2c"/>
       <use x="547.949219" xlink:href="#DejaVuSans-20"/>
       <use x="579.736328" xlink:href="#DejaVuSans-32"/>
       <use x="643.359375" xlink:href="#DejaVuSans-39"/>
       <use x="706.982422" xlink:href="#DejaVuSans-32"/>
       <use x="770.605469" xlink:href="#DejaVuSans-38"/>
       <use x="834.228516" xlink:href="#DejaVuSans-2e"/>
       <use x="866.015625" xlink:href="#DejaVuSans-30"/>
       <use x="929.638672" xlink:href="#DejaVuSans-5d"/>
      </g>
     </g>
    </g>
    <g id="text_37">
     <!-- Word frequency -->
     <defs>
      <path d="M 3.328125 72.90625 
L 13.28125 72.90625 
L 28.609375 11.28125 
L 43.890625 72.90625 
L 54.984375 72.90625 
L 70.3125 11.28125 
L 85.59375 72.90625 
L 95.609375 72.90625 
L 77.296875 0 
L 64.890625 0 
L 49.515625 63.28125 
L 33.984375 0 
L 21.578125 0 
z
" id="DejaVuSans-57"/>
      <path d="M 30.609375 48.390625 
Q 23.390625 48.390625 19.1875 42.75 
Q 14.984375 37.109375 14.984375 27.296875 
Q 14.984375 17.484375 19.15625 11.84375 
Q 23.34375 6.203125 30.609375 6.203125 
Q 37.796875 6.203125 41.984375 11.859375 
Q 46.1875 17.53125 46.1875 27.296875 
Q 46.1875 37.015625 41.984375 42.703125 
Q 37.796875 48.390625 30.609375 48.390625 
z
M 30.609375 56 
Q 42.328125 56 49.015625 48.375 
Q 55.71875 40.765625 55.71875 27.296875 
Q 55.71875 13.875 49.015625 6.21875 
Q 42.328125 -1.421875 30.609375 -1.421875 
Q 18.84375 -1.421875 12.171875 6.21875 
Q 5.515625 13.875 5.515625 27.296875 
Q 5.515625 40.765625 12.171875 48.375 
Q 18.84375 56 30.609375 56 
z
" id="DejaVuSans-6f"/>
      <path d="M 41.109375 46.296875 
Q 39.59375 47.171875 37.8125 47.578125 
Q 36.03125 48 33.890625 48 
Q 26.265625 48 22.1875 43.046875 
Q 18.109375 38.09375 18.109375 28.8125 
L 18.109375 0 
L 9.078125 0 
L 9.078125 54.6875 
L 18.109375 54.6875 
L 18.109375 46.1875 
Q 20.953125 51.171875 25.484375 53.578125 
Q 30.03125 56 36.53125 56 
Q 37.453125 56 38.578125 55.875 
Q 39.703125 55.765625 41.0625 55.515625 
z
" id="DejaVuSans-72"/>
      <path d="M 45.40625 46.390625 
L 45.40625 75.984375 
L 54.390625 75.984375 
L 54.390625 0 
L 45.40625 0 
L 45.40625 8.203125 
Q 42.578125 3.328125 38.25 0.953125 
Q 33.9375 -1.421875 27.875 -1.421875 
Q 17.96875 -1.421875 11.734375 6.484375 
Q 5.515625 14.40625 5.515625 27.296875 
Q 5.515625 40.1875 11.734375 48.09375 
Q 17.96875 56 27.875 56 
Q 33.9375 56 38.25 53.625 
Q 42.578125 51.265625 45.40625 46.390625 
z
M 14.796875 27.296875 
Q 14.796875 17.390625 18.875 11.75 
Q 22.953125 6.109375 30.078125 6.109375 
Q 37.203125 6.109375 41.296875 11.75 
Q 45.40625 17.390625 45.40625 27.296875 
Q 45.40625 37.203125 41.296875 42.84375 
Q 37.203125 48.484375 30.078125 48.484375 
Q 22.953125 48.484375 18.875 42.84375 
Q 14.796875 37.203125 14.796875 27.296875 
z
" id="DejaVuSans-64"/>
      <path d="M 37.109375 75.984375 
L 37.109375 68.5 
L 28.515625 68.5 
Q 23.6875 68.5 21.796875 66.546875 
Q 19.921875 64.59375 19.921875 59.515625 
L 19.921875 54.6875 
L 34.71875 54.6875 
L 34.71875 47.703125 
L 19.921875 47.703125 
L 19.921875 0 
L 10.890625 0 
L 10.890625 47.703125 
L 2.296875 47.703125 
L 2.296875 54.6875 
L 10.890625 54.6875 
L 10.890625 58.5 
Q 10.890625 67.625 15.140625 71.796875 
Q 19.390625 75.984375 28.609375 75.984375 
z
" id="DejaVuSans-66"/>
      <path d="M 56.203125 29.59375 
L 56.203125 25.203125 
L 14.890625 25.203125 
Q 15.484375 15.921875 20.484375 11.0625 
Q 25.484375 6.203125 34.421875 6.203125 
Q 39.59375 6.203125 44.453125 7.46875 
Q 49.3125 8.734375 54.109375 11.28125 
L 54.109375 2.78125 
Q 49.265625 0.734375 44.1875 -0.34375 
Q 39.109375 -1.421875 33.890625 -1.421875 
Q 20.796875 -1.421875 13.15625 6.1875 
Q 5.515625 13.8125 5.515625 26.8125 
Q 5.515625 40.234375 12.765625 48.109375 
Q 20.015625 56 32.328125 56 
Q 43.359375 56 49.78125 48.890625 
Q 56.203125 41.796875 56.203125 29.59375 
z
M 47.21875 32.234375 
Q 47.125 39.59375 43.09375 43.984375 
Q 39.0625 48.390625 32.421875 48.390625 
Q 24.90625 48.390625 20.390625 44.140625 
Q 15.875 39.890625 15.1875 32.171875 
z
" id="DejaVuSans-65"/>
      <path d="M 14.796875 27.296875 
Q 14.796875 17.390625 18.875 11.75 
Q 22.953125 6.109375 30.078125 6.109375 
Q 37.203125 6.109375 41.296875 11.75 
Q 45.40625 17.390625 45.40625 27.296875 
Q 45.40625 37.203125 41.296875 42.84375 
Q 37.203125 48.484375 30.078125 48.484375 
Q 22.953125 48.484375 18.875 42.84375 
Q 14.796875 37.203125 14.796875 27.296875 
z
M 45.40625 8.203125 
Q 42.578125 3.328125 38.25 0.953125 
Q 33.9375 -1.421875 27.875 -1.421875 
Q 17.96875 -1.421875 11.734375 6.484375 
Q 5.515625 14.40625 5.515625 27.296875 
Q 5.515625 40.1875 11.734375 48.09375 
Q 17.96875 56 27.875 56 
Q 33.9375 56 38.25 53.625 
Q 42.578125 51.265625 45.40625 46.390625 
L 45.40625 54.6875 
L 54.390625 54.6875 
L 54.390625 -20.796875 
L 45.40625 -20.796875 
z
" id="DejaVuSans-71"/>
      <path d="M 8.5 21.578125 
L 8.5 54.6875 
L 17.484375 54.6875 
L 17.484375 21.921875 
Q 17.484375 14.15625 20.5 10.265625 
Q 23.53125 6.390625 29.59375 6.390625 
Q 36.859375 6.390625 41.078125 11.03125 
Q 45.3125 15.671875 45.3125 23.6875 
L 45.3125 54.6875 
L 54.296875 54.6875 
L 54.296875 0 
L 45.3125 0 
L 45.3125 8.40625 
Q 42.046875 3.421875 37.71875 1 
Q 33.40625 -1.421875 27.6875 -1.421875 
Q 18.265625 -1.421875 13.375 4.4375 
Q 8.5 10.296875 8.5 21.578125 
z
M 31.109375 56 
z
" id="DejaVuSans-75"/>
      <path d="M 54.890625 33.015625 
L 54.890625 0 
L 45.90625 0 
L 45.90625 32.71875 
Q 45.90625 40.484375 42.875 44.328125 
Q 39.84375 48.1875 33.796875 48.1875 
Q 26.515625 48.1875 22.3125 43.546875 
Q 18.109375 38.921875 18.109375 30.90625 
L 18.109375 0 
L 9.078125 0 
L 9.078125 54.6875 
L 18.109375 54.6875 
L 18.109375 46.1875 
Q 21.34375 51.125 25.703125 53.5625 
Q 30.078125 56 35.796875 56 
Q 45.21875 56 50.046875 50.171875 
Q 54.890625 44.34375 54.890625 33.015625 
z
" id="DejaVuSans-6e"/>
      <path d="M 48.78125 52.59375 
L 48.78125 44.1875 
Q 44.96875 46.296875 41.140625 47.34375 
Q 37.3125 48.390625 33.40625 48.390625 
Q 24.65625 48.390625 19.8125 42.84375 
Q 14.984375 37.3125 14.984375 27.296875 
Q 14.984375 17.28125 19.8125 11.734375 
Q 24.65625 6.203125 33.40625 6.203125 
Q 37.3125 6.203125 41.140625 7.25 
Q 44.96875 8.296875 48.78125 10.40625 
L 48.78125 2.09375 
Q 45.015625 0.34375 40.984375 -0.53125 
Q 36.96875 -1.421875 32.421875 -1.421875 
Q 20.0625 -1.421875 12.78125 6.34375 
Q 5.515625 14.109375 5.515625 27.296875 
Q 5.515625 40.671875 12.859375 48.328125 
Q 20.21875 56 33.015625 56 
Q 37.15625 56 41.109375 55.140625 
Q 45.0625 54.296875 48.78125 52.59375 
z
" id="DejaVuSans-63"/>
      <path d="M 32.171875 -5.078125 
Q 28.375 -14.84375 24.75 -17.8125 
Q 21.140625 -20.796875 15.09375 -20.796875 
L 7.90625 -20.796875 
L 7.90625 -13.28125 
L 13.1875 -13.28125 
Q 16.890625 -13.28125 18.9375 -11.515625 
Q 21 -9.765625 23.484375 -3.21875 
L 25.09375 0.875 
L 2.984375 54.6875 
L 12.5 54.6875 
L 29.59375 11.921875 
L 46.6875 54.6875 
L 56.203125 54.6875 
z
" id="DejaVuSans-79"/>
     </defs>
     <g transform="translate(641.98875 1521.71375)scale(0.24 -0.24)">
      <use xlink:href="#DejaVuSans-57"/>
      <use x="98.798828" xlink:href="#DejaVuSans-6f"/>
      <use x="159.980469" xlink:href="#DejaVuSans-72"/>
      <use x="201.078125" xlink:href="#DejaVuSans-64"/>
      <use x="264.554688" xlink:href="#DejaVuSans-20"/>
      <use x="296.341797" xlink:href="#DejaVuSans-66"/>
      <use x="331.546875" xlink:href="#DejaVuSans-72"/>
      <use x="372.628906" xlink:href="#DejaVuSans-65"/>
      <use x="434.152344" xlink:href="#DejaVuSans-71"/>
      <use x="497.628906" xlink:href="#DejaVuSans-75"/>
      <use x="561.007812" xlink:href="#DejaVuSans-65"/>
      <use x="622.53125" xlink:href="#DejaVuSans-6e"/>
      <use x="685.910156" xlink:href="#DejaVuSans-63"/>
      <use x="740.890625" xlink:href="#DejaVuSans-79"/>
     </g>
    </g>
   </g>
   <g id="matplotlib.axis_2">
    <g id="ytick_1">
     <g id="line2d_37">
      <defs>
       <path d="M 0 0 
L -3.5 0 
" id="mba9e1c465f" style="stroke:#000000;stroke-width:0.8;"/>
      </defs>
      <g>
       <use style="stroke:#000000;stroke-width:0.8;" x="180" xlink:href="#mba9e1c465f" y="1260"/>
      </g>
     </g>
     <g id="text_38">
      <!-- 0 -->
      <g transform="translate(157.73 1269.118125)scale(0.24 -0.24)">
       <use xlink:href="#DejaVuSans-30"/>
      </g>
     </g>
    </g>
    <g id="ytick_2">
     <g id="line2d_38">
      <g>
       <use style="stroke:#000000;stroke-width:0.8;" x="180" xlink:href="#mba9e1c465f" y="1057.459299"/>
      </g>
     </g>
     <g id="text_39">
      <!-- 5000 -->
      <g transform="translate(111.92 1066.577424)scale(0.24 -0.24)">
       <use xlink:href="#DejaVuSans-35"/>
       <use x="63.623047" xlink:href="#DejaVuSans-30"/>
       <use x="127.246094" xlink:href="#DejaVuSans-30"/>
       <use x="190.869141" xlink:href="#DejaVuSans-30"/>
      </g>
     </g>
    </g>
    <g id="ytick_3">
     <g id="line2d_39">
      <g>
       <use style="stroke:#000000;stroke-width:0.8;" x="180" xlink:href="#mba9e1c465f" y="854.918598"/>
      </g>
     </g>
     <g id="text_40">
      <!-- 10000 -->
      <g transform="translate(96.65 864.036723)scale(0.24 -0.24)">
       <use xlink:href="#DejaVuSans-31"/>
       <use x="63.623047" xlink:href="#DejaVuSans-30"/>
       <use x="127.246094" xlink:href="#DejaVuSans-30"/>
       <use x="190.869141" xlink:href="#DejaVuSans-30"/>
       <use x="254.492188" xlink:href="#DejaVuSans-30"/>
      </g>
     </g>
    </g>
    <g id="ytick_4">
     <g id="line2d_40">
      <g>
       <use style="stroke:#000000;stroke-width:0.8;" x="180" xlink:href="#mba9e1c465f" y="652.377897"/>
      </g>
     </g>
     <g id="text_41">
      <!-- 15000 -->
      <g transform="translate(96.65 661.496022)scale(0.24 -0.24)">
       <use xlink:href="#DejaVuSans-31"/>
       <use x="63.623047" xlink:href="#DejaVuSans-35"/>
       <use x="127.246094" xlink:href="#DejaVuSans-30"/>
       <use x="190.869141" xlink:href="#DejaVuSans-30"/>
       <use x="254.492188" xlink:href="#DejaVuSans-30"/>
      </g>
     </g>
    </g>
    <g id="ytick_5">
     <g id="line2d_41">
      <g>
       <use style="stroke:#000000;stroke-width:0.8;" x="180" xlink:href="#mba9e1c465f" y="449.837196"/>
      </g>
     </g>
     <g id="text_42">
      <!-- 20000 -->
      <g transform="translate(96.65 458.955321)scale(0.24 -0.24)">
       <use xlink:href="#DejaVuSans-32"/>
       <use x="63.623047" xlink:href="#DejaVuSans-30"/>
       <use x="127.246094" xlink:href="#DejaVuSans-30"/>
       <use x="190.869141" xlink:href="#DejaVuSans-30"/>
       <use x="254.492188" xlink:href="#DejaVuSans-30"/>
      </g>
     </g>
    </g>
    <g id="ytick_6">
     <g id="line2d_42">
      <g>
       <use style="stroke:#000000;stroke-width:0.8;" x="180" xlink:href="#mba9e1c465f" y="247.296495"/>
      </g>
     </g>
     <g id="text_43">
      <!-- 25000 -->
      <g transform="translate(96.65 256.41462)scale(0.24 -0.24)">
       <use xlink:href="#DejaVuSans-32"/>
       <use x="63.623047" xlink:href="#DejaVuSans-35"/>
       <use x="127.246094" xlink:href="#DejaVuSans-30"/>
       <use x="190.869141" xlink:href="#DejaVuSans-30"/>
       <use x="254.492188" xlink:href="#DejaVuSans-30"/>
      </g>
     </g>
    </g>
    <g id="text_44">
     <!-- Number of words -->
     <defs>
      <path d="M 9.8125 72.90625 
L 23.09375 72.90625 
L 55.421875 11.921875 
L 55.421875 72.90625 
L 64.984375 72.90625 
L 64.984375 0 
L 51.703125 0 
L 19.390625 60.984375 
L 19.390625 0 
L 9.8125 0 
z
" id="DejaVuSans-4e"/>
      <path d="M 52 44.1875 
Q 55.375 50.25 60.0625 53.125 
Q 64.75 56 71.09375 56 
Q 79.640625 56 84.28125 50.015625 
Q 88.921875 44.046875 88.921875 33.015625 
L 88.921875 0 
L 79.890625 0 
L 79.890625 32.71875 
Q 79.890625 40.578125 77.09375 44.375 
Q 74.3125 48.1875 68.609375 48.1875 
Q 61.625 48.1875 57.5625 43.546875 
Q 53.515625 38.921875 53.515625 30.90625 
L 53.515625 0 
L 44.484375 0 
L 44.484375 32.71875 
Q 44.484375 40.625 41.703125 44.40625 
Q 38.921875 48.1875 33.109375 48.1875 
Q 26.21875 48.1875 22.15625 43.53125 
Q 18.109375 38.875 18.109375 30.90625 
L 18.109375 0 
L 9.078125 0 
L 9.078125 54.6875 
L 18.109375 54.6875 
L 18.109375 46.1875 
Q 21.1875 51.21875 25.484375 53.609375 
Q 29.78125 56 35.6875 56 
Q 41.65625 56 45.828125 52.96875 
Q 50 49.953125 52 44.1875 
z
" id="DejaVuSans-6d"/>
      <path d="M 48.6875 27.296875 
Q 48.6875 37.203125 44.609375 42.84375 
Q 40.53125 48.484375 33.40625 48.484375 
Q 26.265625 48.484375 22.1875 42.84375 
Q 18.109375 37.203125 18.109375 27.296875 
Q 18.109375 17.390625 22.1875 11.75 
Q 26.265625 6.109375 33.40625 6.109375 
Q 40.53125 6.109375 44.609375 11.75 
Q 48.6875 17.390625 48.6875 27.296875 
z
M 18.109375 46.390625 
Q 20.953125 51.265625 25.265625 53.625 
Q 29.59375 56 35.59375 56 
Q 45.5625 56 51.78125 48.09375 
Q 58.015625 40.1875 58.015625 27.296875 
Q 58.015625 14.40625 51.78125 6.484375 
Q 45.5625 -1.421875 35.59375 -1.421875 
Q 29.59375 -1.421875 25.265625 0.953125 
Q 20.953125 3.328125 18.109375 8.203125 
L 18.109375 0 
L 9.078125 0 
L 9.078125 75.984375 
L 18.109375 75.984375 
z
" id="DejaVuSans-62"/>
      <path d="M 4.203125 54.6875 
L 13.1875 54.6875 
L 24.421875 12.015625 
L 35.59375 54.6875 
L 46.1875 54.6875 
L 57.421875 12.015625 
L 68.609375 54.6875 
L 77.59375 54.6875 
L 63.28125 0 
L 52.6875 0 
L 40.921875 44.828125 
L 29.109375 0 
L 18.5 0 
z
" id="DejaVuSans-77"/>
      <path d="M 44.28125 53.078125 
L 44.28125 44.578125 
Q 40.484375 46.53125 36.375 47.5 
Q 32.28125 48.484375 27.875 48.484375 
Q 21.1875 48.484375 17.84375 46.4375 
Q 14.5 44.390625 14.5 40.28125 
Q 14.5 37.15625 16.890625 35.375 
Q 19.28125 33.59375 26.515625 31.984375 
L 29.59375 31.296875 
Q 39.15625 29.25 43.1875 25.515625 
Q 47.21875 21.78125 47.21875 15.09375 
Q 47.21875 7.46875 41.1875 3.015625 
Q 35.15625 -1.421875 24.609375 -1.421875 
Q 20.21875 -1.421875 15.453125 -0.5625 
Q 10.6875 0.296875 5.421875 2 
L 5.421875 11.28125 
Q 10.40625 8.6875 15.234375 7.390625 
Q 20.0625 6.109375 24.8125 6.109375 
Q 31.15625 6.109375 34.5625 8.28125 
Q 37.984375 10.453125 37.984375 14.40625 
Q 37.984375 18.0625 35.515625 20.015625 
Q 33.0625 21.96875 24.703125 23.78125 
L 21.578125 24.515625 
Q 13.234375 26.265625 9.515625 29.90625 
Q 5.8125 33.546875 5.8125 39.890625 
Q 5.8125 47.609375 11.28125 51.796875 
Q 16.75 56 26.8125 56 
Q 31.78125 56 36.171875 55.265625 
Q 40.578125 54.546875 44.28125 53.078125 
z
" id="DejaVuSans-73"/>
     </defs>
     <g transform="translate(87.65875 819.7575)rotate(-90)scale(0.24 -0.24)">
      <use xlink:href="#DejaVuSans-4e"/>
      <use x="74.804688" xlink:href="#DejaVuSans-75"/>
      <use x="138.183594" xlink:href="#DejaVuSans-6d"/>
      <use x="235.595703" xlink:href="#DejaVuSans-62"/>
      <use x="299.072266" xlink:href="#DejaVuSans-65"/>
      <use x="360.595703" xlink:href="#DejaVuSans-72"/>
      <use x="401.708984" xlink:href="#DejaVuSans-20"/>
      <use x="433.496094" xlink:href="#DejaVuSans-6f"/>
      <use x="494.677734" xlink:href="#DejaVuSans-66"/>
      <use x="529.882812" xlink:href="#DejaVuSans-20"/>
      <use x="561.669922" xlink:href="#DejaVuSans-77"/>
      <use x="643.457031" xlink:href="#DejaVuSans-6f"/>
      <use x="704.638672" xlink:href="#DejaVuSans-72"/>
      <use x="745.736328" xlink:href="#DejaVuSans-64"/>
      <use x="809.212891" xlink:href="#DejaVuSans-73"/>
     </g>
    </g>
   </g>
   <g id="patch_109">
    <path d="M 180 1260 
L 180 172.8 
" style="fill:none;stroke:#000000;stroke-linecap:square;stroke-linejoin:miter;stroke-width:0.8;"/>
   </g>
   <g id="patch_110">
    <path d="M 1296 1260 
L 1296 172.8 
" style="fill:none;stroke:#000000;stroke-linecap:square;stroke-linejoin:miter;stroke-width:0.8;"/>
   </g>
   <g id="patch_111">
    <path d="M 180 1260 
L 1296 1260 
" style="fill:none;stroke:#000000;stroke-linecap:square;stroke-linejoin:miter;stroke-width:0.8;"/>
   </g>
   <g id="patch_112">
    <path d="M 180 172.8 
L 1296 172.8 
" style="fill:none;stroke:#000000;stroke-linecap:square;stroke-linejoin:miter;stroke-width:0.8;"/>
   </g>
   <g id="text_45">
    <!-- Words count distribution -->
    <defs>
     <path d="M 18.3125 70.21875 
L 18.3125 54.6875 
L 36.8125 54.6875 
L 36.8125 47.703125 
L 18.3125 47.703125 
L 18.3125 18.015625 
Q 18.3125 11.328125 20.140625 9.421875 
Q 21.96875 7.515625 27.59375 7.515625 
L 36.8125 7.515625 
L 36.8125 0 
L 27.59375 0 
Q 17.1875 0 13.234375 3.875 
Q 9.28125 7.765625 9.28125 18.015625 
L 9.28125 47.703125 
L 2.6875 47.703125 
L 2.6875 54.6875 
L 9.28125 54.6875 
L 9.28125 70.21875 
z
" id="DejaVuSans-74"/>
     <path d="M 9.421875 54.6875 
L 18.40625 54.6875 
L 18.40625 0 
L 9.421875 0 
z
M 9.421875 75.984375 
L 18.40625 75.984375 
L 18.40625 64.59375 
L 9.421875 64.59375 
z
" id="DejaVuSans-69"/>
    </defs>
    <g transform="translate(553.169531 166.8)scale(0.3 -0.3)">
     <use xlink:href="#DejaVuSans-57"/>
     <use x="98.798828" xlink:href="#DejaVuSans-6f"/>
     <use x="159.980469" xlink:href="#DejaVuSans-72"/>
     <use x="201.078125" xlink:href="#DejaVuSans-64"/>
     <use x="264.554688" xlink:href="#DejaVuSans-73"/>
     <use x="316.654297" xlink:href="#DejaVuSans-20"/>
     <use x="348.441406" xlink:href="#DejaVuSans-63"/>
     <use x="403.421875" xlink:href="#DejaVuSans-6f"/>
     <use x="464.603516" xlink:href="#DejaVuSans-75"/>
     <use x="527.982422" xlink:href="#DejaVuSans-6e"/>
     <use x="591.361328" xlink:href="#DejaVuSans-74"/>
     <use x="630.570312" xlink:href="#DejaVuSans-20"/>
     <use x="662.357422" xlink:href="#DejaVuSans-64"/>
     <use x="725.833984" xlink:href="#DejaVuSans-69"/>
     <use x="753.617188" xlink:href="#DejaVuSans-73"/>
     <use x="805.716797" xlink:href="#DejaVuSans-74"/>
     <use x="844.925781" xlink:href="#DejaVuSans-72"/>
     <use x="886.039062" xlink:href="#DejaVuSans-69"/>
     <use x="913.822266" xlink:href="#DejaVuSans-62"/>
     <use x="977.298828" xlink:href="#DejaVuSans-75"/>
     <use x="1040.677734" xlink:href="#DejaVuSans-74"/>
     <use x="1079.886719" xlink:href="#DejaVuSans-69"/>
     <use x="1107.669922" xlink:href="#DejaVuSans-6f"/>
     <use x="1168.851562" xlink:href="#DejaVuSans-6e"/>
    </g>
   </g>
  </g>
 </g>
 <defs>
  <clipPath id="p84b715c57f">
   <rect height="1087.2" width="1116" x="180" y="172.8"/>
  </clipPath>
 </defs>
</svg>
